<svg width="1280" height="200" xmlns="http://www.w3.org/2000/svg" preserveAspectRatio="xMidYMid meet">

 <g>
  <title>background</title>
  <rect fill="none" id="canvas_background" height="202" width="1282" y="-1" x="-1"/>
 </g>
 <g>
  <title>Layer 1</title>
  <g id="svg_1" fill="#fff" transform="translate(0,640) scale(0.10000000149011612,-0.10000000149011612) ">
   <path id="svg_2" fill="#2d2d86" d="m2600,6174c-109,-47 -147,-172 -90,-300c19,-43 39,-62 157,-144c72,-50 180,-164 234,-249c15,-24 33,-67 39,-95c48,-234 225,-107 222,160c-3,262 -177,565 -361,629c-56,19 -155,19 -201,-1z"/>
   <path id="svg_3" fill="#2d2d86" d="m9225,6156c-110,-29 -188,-77 -299,-185c-179,-174 -276,-391 -248,-559c13,-75 32,-109 68,-118c44,-11 90,19 125,81c38,68 94,118 212,189c94,56 147,79 273,115c88,26 130,54 171,114c70,105 66,215 -12,293c-67,67 -190,97 -290,70z"/>
   <path id="svg_4" d="m4133,6006c-195,-45 -331,-177 -363,-355c-19,-104 9,-198 81,-276c82,-89 157,-115 369,-125c138,-6 178,-12 243,-34c192,-65 299,-190 301,-352c1,-156 -108,-284 -298,-348c-145,-49 -452,-104 -646,-116c-230,-13 -344,3 -647,93c-218,65 -264,70 -613,73c-279,2 -327,4 -420,24c-198,41 -327,101 -468,219c-439,367 -764,507 -1033,447c-182,-41 -279,-146 -279,-301c1,-95 53,-166 147,-199c23,-8 90,-22 150,-31c117,-19 174,-41 199,-80c36,-54 -5,-133 -91,-177c-31,-16 -71,-23 -175,-30c-250,-16 -504,-87 -600,-167l-25,-20l6394,-1c3517,0 6392,2 6390,4c-2,2 -67,20 -144,41c-190,49 -287,84 -505,178c-403,173 -496,205 -676,228c-156,19 -305,0 -484,-63c-49,-17 -107,-30 -136,-30c-89,-1 -162,51 -184,131c-29,107 55,195 211,221c35,6 119,19 187,30c195,32 298,81 352,167c36,56 47,92 60,193c26,193 -56,334 -251,435c-252,130 -558,130 -893,-2c-283,-111 -573,-295 -944,-601c-103,-84 -222,-180 -264,-213c-292,-225 -629,-383 -973,-456c-113,-23 -153,-27 -305,-28c-209,0 -213,1 -445,119c-206,106 -286,127 -510,133c-124,4 -208,0 -370,-17c-427,-46 -660,-9 -886,139c-168,111 -254,210 -500,577c-245,365 -360,478 -558,547c-74,26 -103,31 -211,33c-83,3 -146,-1 -187,-10z"/>
   <path id="svg_5" d="m8055,5978c-77,-28 -155,-108 -211,-218c-22,-43 -28,-69 -28,-120c0,-81 15,-112 52,-108c20,2 33,14 50,45c31,56 114,120 204,159c85,36 118,74 118,136c0,54 -14,76 -63,99c-47,21 -78,23 -122,7z"/>
   <path id="svg_6" d="m5625,5949c-105,-60 -148,-119 -172,-235c-13,-64 -14,-91 -4,-158c35,-252 171,-480 332,-556c100,-47 159,-38 175,27c5,19 -3,45 -30,97c-20,40 -41,98 -46,131c-17,102 -12,256 11,358c12,53 19,112 16,139c-5,58 -46,129 -100,172c-31,25 -48,31 -100,33c-34,2 -71,-2 -82,-8z"/>
   <path id="svg_7" fill="#2d2d86" d="m305,5901c-104,-54 -114,-174 -18,-236c23,-15 51,-19 168,-20c142,-2 206,-15 245,-50c8,-7 27,-18 43,-24c23,-9 31,-7 48,10c25,25 20,60 -20,133c-32,60 -101,117 -200,164c-96,46 -203,55 -266,23z"/>
   <path id="svg_8" d="m12222,5865c-138,-53 -240,-161 -230,-244c6,-46 30,-48 104,-10c67,34 69,34 203,34c145,1 164,6 200,51c44,56 15,141 -60,179c-43,23 -143,18 -217,-10z"/>
   <path id="svg_9" d="m1542,5862c-61,-22 -87,-44 -113,-94c-23,-46 -24,-99 -3,-163c24,-69 74,-114 174,-155c146,-60 301,-192 355,-303c37,-77 71,-100 112,-77c35,20 52,55 66,136c27,159 -63,374 -226,537c-117,117 -248,160 -365,119z"/>
   <path id="svg_10" d="m6898,5690c-252,-46 -507,-211 -590,-382c-56,-114 -57,-189 -4,-223c33,-22 72,-13 127,27c118,85 309,117 541,90l138,-16l67,35c148,75 193,218 106,336c-65,88 -148,131 -266,138c-40,2 -93,0 -119,-5z"/>
   <path id="svg_11" fill="#2d2d86" d="m11926,5228c-92,-25 -249,-224 -232,-293c12,-49 109,-59 234,-25c157,44 212,91 212,182c0,97 -107,165 -214,136z"/>
   <path id="svg_12" fill="#2d2d86" d="m7900,5164c-132,-47 -313,-267 -327,-398c-6,-53 15,-79 77,-96c124,-33 457,73 526,167c54,75 58,172 10,241c-56,82 -188,121 -286,86z"/>
   <path id="svg_13" d="m2493,5135c-46,-20 -67,-57 -60,-106c8,-61 31,-87 110,-123c83,-38 166,-102 187,-143c37,-74 72,-84 97,-26c59,142 -120,413 -272,412c-16,0 -44,-6 -62,-14z"/>
   <path id="svg_14" fill="#2d2d86" d="m3680,5091c-85,-30 -150,-115 -150,-196c0,-81 65,-167 160,-209c156,-70 404,-97 467,-50c25,19 28,28 28,76c0,72 -43,144 -152,255c-126,129 -234,166 -353,124z"/>
   <path id="svg_15" d="m12434,4832c-63,-5 -163,-60 -188,-104c-19,-34 -20,-39 -5,-53c12,-13 21,-13 48,-4c43,15 141,5 210,-21c51,-20 54,-20 90,-3c20,10 42,31 49,46c12,24 11,33 -5,65c-29,59 -91,82 -199,74z"/>
   <path id="svg_16" fill="#2d2d86" d="m124,4746c-37,-31 -38,-84 -5,-120c53,-57 228,-85 245,-40c14,35 -57,140 -115,170c-43,22 -94,18 -125,-10z"/>
  </g>
 </g>
</svg>