<svg xmlns="http://www.w3.org/2000/svg" xmlns:xlink="http://www.w3.org/1999/xlink" id="Layer_1" enable-background="new 0 0 100 100" viewBox="0 0 100 100"><symbol id="navbar_x5F_icon_x5F_back_1_" viewBox="-1 -24 25 24"><path fill="none" stroke="#fff" stroke-miterlimit="10" stroke-width="2" d="M18-19c0-0.4,0-0.5-0.3-0.3l-12,7c-0.3,0.2-0.2,0.5,0.1,0.6l11.9,7C18-4.5,18-4.7,18-5V-19z" opacity=".9"/><rect width="24" height="24" y="-24" fill="none"/><rect width="25" height="24" x="-1" y="-24" fill="none" display="none"/></symbol><symbol id="navbar_x5F_icon_x5F_home_1_" viewBox="0 -24 24 24"><g opacity=".9"><g id="XMLID_809_"><circle id="XMLID_814_" cx="12" cy="-12" r="6.9" fill="none" stroke="#fff" stroke-miterlimit="10" stroke-width="1.803"/></g></g><rect width="24" height="24" y="-24" fill="none"/><rect width="24" height="23" y="-24" fill="none" display="none"/></symbol><symbol id="navbar_x5F_icon_x5F_recents_1_" viewBox="0 -24 24 24"><path fill="none" stroke="#fff" stroke-miterlimit="10" stroke-width="2" d="M19-5.7C19-5.4,18.6-5,18.2-5H5.8C5.4-5,5-5.4,5-5.7v-12.6C5-18.6,5.4-19,5.8-19h12.4      c0.4,0,0.8,0.4,0.8,0.7V-5.7z" opacity=".9"/><rect width="24" height="24" y="-24" fill="none"/><rect width="24" height="23" y="-24" fill="none" display="none"/></symbol><symbol id="sysbar_x5F_status_2" viewBox="0 -24 360 24"><use id="XMLID_495_" width="360" height="24" y="-24" overflow="visible" xlink:href="#sysbar_x5F_status_x5F_used_x5F_light"/></symbol><symbol id="sysbar_x5F_status_x5F_used_x5F_light" viewBox="0 -24 360 24"><rect width="360" height="24" y="-24" fill="#010101" fill-opacity="0"/><rect width="40" height="16" x="312" y="-21" fill="none" opacity=".9"/><path fill="#fff" d="M266-19l8.8,10.9C274.5-7.8,271.1-5,266-5s-8.5-2.8-8.8-3.1L266-19L266-19L266-19L266-19L266-19z" opacity=".9"/><rect width="16" height="16" x="258" y="-20" fill="none"/><polygon fill="#fff" points="277 -19 291 -19 291 -5" opacity=".9"/><rect width="16" height="16" x="276" y="-20" fill="none"/><g><rect width="16" height="16" x="296" y="-20" fill="none"/><path fill="#fff" d="M306-6v1h-3v-1h-3v-13h9v13H306z" opacity=".9"/></g></symbol><path fill="#fedab3" d="M41.3,65.5v25h18v-25H41.3z M57.3,90h-14V79.1c0-3.2,1.6-6.1,4.3-7.9l2.7-1.7l2.7,1.7    c2.7,1.7,4.3,4.7,4.3,7.9V90z"/><path fill="#fdd2af" d="M64.3 68.5v22h4.6c0 0 0-5.3 0-7 0-2.3 2.1-3 2.1-3s1.9.7 1.9 3c0 1.7 0 7 0 7h5.5v-22H64.3zM22.2 68.5v22h5.5c0 0 0-5.3 0-7 0-2.3 2.1-3 2.1-3s1.9.7 1.9 3c0 1.7 0 7 0 7h4.5v-22H22.2z"/><polyline id="XMLID_2328_" fill="#fedab3" points="64.3 57.5 79.3 57.5 79.3 60.5 21.3 60.5 21.3 57.5 36.3 57.5"/><rect width="2" height="3" x="21.3" y="57.5" fill="#eeb694"/><rect width="2" height="3" x="34.3" y="57.5" fill="#eeb694"/><rect width="2" height="3" x="77.3" y="57.5" fill="#fff" opacity=".7"/><rect id="XMLID_2327_" width="18" height="7" x="41.3" y="53.5" fill="#fedab3"/><polygon fill="#eeb694" points="41.3 53.5 41.3 55.5 57.2 55.5 57.2 60.5 59.2 60.5 59.2 53.5"/><polyline id="XMLID_2326_" fill="#fdd2af" points="22.3 65.5 22.3 60.5 78.4 60.5 78.4 65.5"/><rect width="56.1" height="2" x="22.3" y="60.5" fill="#eeb694"/><rect width="14.1" height="2" x="64.3" y="68.5" fill="#eeb694"/><rect width="14.1" height="2" x="22.3" y="68.5" fill="#eeb694"/><rect width="18" height="2" x="41.3" y="65.5" fill="#eeb694"/><rect width="2" height="25" x="41.3" y="65.5" fill="#fff" opacity=".7"/><rect width="2" height="25" x="57.3" y="65.5" fill="#eeb694"/><rect width="18" height="5" x="41.3" y="60.5" fill="#e8b795"/><rect width="18" height="2" x="41.3" y="60.5" fill="#c59878"/><path id="XMLID_2325_" fill="#594454" d="M79.3,61h-58c-0.3,0-0.5-0.2-0.5-0.5v-3c0-0.3,0.2-0.5,0.5-0.5h15c0.3,0,0.5,0.2,0.5,0.5S36.6,58,36.3,58    H21.8v2h57v-2H64.3c-0.3,0-0.5-0.2-0.5-0.5s0.2-0.5,0.5-0.5h14.9c0.3,0,0.5,0.2,0.5,0.5v3C79.8,60.8,79.6,61,79.3,61z"/><polyline id="XMLID_2324_" fill="#dda581" points="59.8 65.5 63.3 65.5 81.3 65.5 80.3 68.5 63.3 68.5 59.8 68.5"/><rect width="2" height="5" x="76.4" y="60.5" fill="#fff" opacity=".7"/><rect width="2" height="22" x="76.4" y="68.5" fill="#fff" opacity=".7"/><polygon fill="#fff" points="79.3 65.5 78.3 68.5 80.3 68.5 81.3 65.5" opacity=".7"/><rect id="XMLID_2323_" width="5" height="37" x="59.3" y="53.5" fill="#fedab3"/><polyline id="XMLID_2322_" fill="#dda581" points="40.8 68.5 36.3 68.5 20.3 68.5 19.3 65.5 36.3 65.5 41.3 65.5"/><rect width="2" height="22" x="22.2" y="68.5" fill="#eeb694"/><rect width="2" height="22" x="34.2" y="68.5" fill="#eeb694"/><rect width="2" height="5" x="22.3" y="60.5" fill="#eeb694"/><rect width="2" height="5" x="34.3" y="60.5" fill="#eeb694"/><polygon fill="#b7856c" points="19.3 65.5 20.3 68.5 22.3 68.5 21.3 65.5"/><rect id="XMLID_2321_" width="5" height="37" x="36.3" y="53.5" fill="#fedab3"/><rect width="2" height="37" x="62.3" y="53.5" fill="#fff" opacity=".7"/><rect width="2" height="37" x="39.3" y="53.5" fill="#fff" opacity=".7"/><rect width="5" height="3" x="36.3" y="65.5" fill="#e8b795"/><rect width="2" height="3" x="39.3" y="65.5" fill="#fff" opacity=".7"/><rect width="5" height="3" x="59.3" y="65.5" fill="#fcc49d"/><rect width="2" height="3" x="62.3" y="65.5" fill="#fff" opacity=".7"/><path id="XMLID_2320_" fill="#dda581" d="M25.8,78.6c0-2.5,1.4-4.8,3.7-6h0c0.2-0.1,0.4-0.1,0.6,0h0c2.3,1.1,3.7,3.4,3.7,6"/><path id="XMLID_2319_" fill="#dda581" d="M66.8,78.6c0-2.5,1.4-4.8,3.7-6l0,0c0.2-0.1,0.4-0.1,0.6,0l0,0c2.3,1.1,3.7,3.4,3.7,6"/><path fill="#b7856c" d="M29.5 74.6c.2-.1.4-.1.6 0 1.6.8 2.8 2.3 3.4 4h.3c0-2.5-1.4-4.8-3.7-6-.2-.1-.4-.1-.6 0-2.3 1.1-3.7 3.4-3.7 6h.3C26.6 76.9 27.8 75.4 29.5 74.6zM70.5 74.6c.2-.1.4-.1.6 0 1.6.8 2.8 2.3 3.4 4h.3c0-2.5-1.4-4.8-3.7-6-.2-.1-.4-.1-.6 0-2.3 1.1-3.7 3.4-3.7 6h.3C67.6 76.9 68.8 75.4 70.5 74.6z"/><rect id="XMLID_2318_" width="3" height="6" x="37.3" y="47.5" fill="#fedab3"/><rect id="XMLID_2317_" width="20" height="3" x="40.3" y="50.5" fill="#fedab3"/><rect width="2" height="3" x="58.3" y="50.5" fill="#eeb694"/><rect width="2" height="3" x="40.3" y="50.5" fill="#fff" opacity=".7"/><path id="XMLID_2316_" fill="#fcc49d" d="M37.3,48v-2c0-0.8,0.7-1.5,1.5-1.5h0c0.8,0,1.5,0.7,1.5,1.5v2"/><rect id="XMLID_2315_" width="3" height="6" x="60.3" y="47.5" fill="#fedab3"/><rect width="3" height="2" x="37.3" y="47.5" fill="#eeb694"/><rect width="3" height="2" x="60.3" y="47.5" fill="#eeb694"/><path id="XMLID_2314_" fill="#fcc49d" d="M60.3,48v-2c0-0.8,0.7-1.5,1.5-1.5h0c0.8,0,1.5,0.7,1.5,1.5v2"/><path id="XMLID_2312_" fill="#594454" d="M82.3,91h-64c-0.3,0-0.5-0.2-0.5-0.5s0.2-0.5,0.5-0.5h64c0.3,0,0.5,0.2,0.5,0.5S82.6,91,82.3,91z"/><path id="XMLID_2311_" fill="#594454" d="M78.3,91h-56c-0.3,0-0.5-0.2-0.5-0.5v-22c0-0.3,0.2-0.5,0.5-0.5s0.5,0.2,0.5,0.5V90h55V68.5    c0-0.3,0.2-0.5,0.5-0.5s0.5,0.2,0.5,0.5v22C78.8,90.8,78.6,91,78.3,91z"/><path id="XMLID_2310_" fill="#594454" d="M78.3,66c-0.3,0-0.5-0.2-0.5-0.5V61h-55v4.5c0,0.3-0.2,0.5-0.5,0.5s-0.5-0.2-0.5-0.5v-5    c0-0.3,0.2-0.5,0.5-0.5h56c0.3,0,0.5,0.2,0.5,0.5v5C78.8,65.8,78.6,66,78.3,66z"/><path id="XMLID_2309_" fill="#594454" d="M40.8,69H20.3c-0.2,0-0.4-0.1-0.5-0.3l-1-3c-0.1-0.2,0-0.3,0.1-0.5c0.1-0.1,0.2-0.2,0.4-0.2h22    c0.3,0,0.5,0.2,0.5,0.5S41.6,66,41.3,66H20l0.7,2h20.1c0.3,0,0.5,0.2,0.5,0.5S41.1,69,40.8,69z"/><path id="XMLID_2308_" fill="#594454" d="M80.3,69H59.8c-0.3,0-0.5-0.2-0.5-0.5s0.2-0.5,0.5-0.5h20.1l0.7-2H59.8c-0.3,0-0.5-0.2-0.5-0.5    s0.2-0.5,0.5-0.5h21.5c0.2,0,0.3,0.1,0.4,0.2c0.1,0.1,0.1,0.3,0.1,0.5l-1,3C80.7,68.9,80.5,69,80.3,69z"/><path id="XMLID_2307_" fill="#594454" d="M41.3,91h-5c-0.3,0-0.5-0.2-0.5-0.5v-37c0-0.3,0.2-0.5,0.5-0.5h5c0.3,0,0.5,0.2,0.5,0.5v37    C41.8,90.8,41.6,91,41.3,91z M36.8,90h4V54h-4V90z"/><path id="XMLID_2306_" fill="#594454" d="M40.3,54h-3c-0.3,0-0.5-0.2-0.5-0.5v-6c0-0.3,0.2-0.5,0.5-0.5h3c0.3,0,0.5,0.2,0.5,0.5v6    C40.8,53.8,40.6,54,40.3,54z M37.8,53h2v-5h-2V53z"/><path id="XMLID_2305_" fill="#594454" d="M40.3,48.5c-0.3,0-0.5-0.2-0.5-0.5v-2c0-0.6-0.4-1-1-1s-1,0.4-1,1v2c0,0.3-0.2,0.5-0.5,0.5s-0.5-0.2-0.5-0.5    v-2c0-1.1,0.9-2,2-2s2,0.9,2,2v2C40.8,48.3,40.6,48.5,40.3,48.5z"/><path id="XMLID_2304_" fill="#594454" d="M31.8,91h-4c-0.3,0-0.5-0.2-0.5-0.5v-7c0-2.6,2.3-3.4,2.4-3.5c0.1,0,0.2,0,0.3,0c0.1,0,2.3,0.9,2.3,3.5v7    C32.3,90.8,32.1,91,31.8,91z M28.3,90h3v-6.5c0-1.5-1-2.2-1.5-2.5c-0.4,0.2-1.5,0.9-1.5,2.5V90z"/><path id="XMLID_2303_" fill="#594454" d="M57.3,90.5c-0.3,0-0.5-0.2-0.5-0.5v-11c0-3-1.5-5.8-4.1-7.5l-2.4-1.5l-2.4,1.6c-2.5,1.6-4.1,4.4-4.1,7.4V90    c0,0.3-0.2,0.5-0.5,0.5s-0.5-0.2-0.5-0.5V79.1c0-3.4,1.7-6.5,4.5-8.3l2.7-1.7c0.2-0.1,0.4-0.1,0.5,0l2.7,1.7    c2.8,1.8,4.6,4.9,4.6,8.3v11C57.8,90.3,57.6,90.5,57.3,90.5z"/><path id="XMLID_2302_" fill="#594454" d="M33.8,79h-8c-0.3,0-0.5-0.2-0.5-0.5s0.2-0.5,0.5-0.5h8c0.3,0,0.5,0.2,0.5,0.5S34.1,79,33.8,79z"/><path id="XMLID_2301_" fill="#594454" d="M38.8,44.9c-0.3,0-0.5-0.2-0.5-0.5v-1.9c0-0.3,0.2-0.5,0.5-0.5s0.5,0.2,0.5,0.5v1.9    C39.3,44.7,39.1,44.9,38.8,44.9z"/><path id="XMLID_2300_" fill="#594454" d="M64.3,91h-5c-0.3,0-0.5-0.2-0.5-0.5v-37c0-0.3,0.2-0.5,0.5-0.5h5c0.3,0,0.5,0.2,0.5,0.5v37    C64.8,90.8,64.6,91,64.3,91z M59.8,90h4V54h-4V90z"/><path id="XMLID_2299_" fill="#594454" d="M63.3,54h-3c-0.3,0-0.5-0.2-0.5-0.5v-6c0-0.3,0.2-0.5,0.5-0.5h3c0.3,0,0.5,0.2,0.5,0.5v6    C63.8,53.8,63.6,54,63.3,54z M60.8,53h2v-5h-2V53z"/><path id="XMLID_2298_" fill="#594454" d="M63.3,48.5c-0.3,0-0.5-0.2-0.5-0.5v-2c0-0.6-0.4-1-1-1s-1,0.4-1,1v2c0,0.3-0.2,0.5-0.5,0.5s-0.5-0.2-0.5-0.5    v-2c0-1.1,0.9-2,2-2s2,0.9,2,2v2C63.8,48.3,63.6,48.5,63.3,48.5z"/><path id="XMLID_2297_" fill="#594454" d="M61.8,44.9c-0.3,0-0.5-0.2-0.5-0.5v-1.9c0-0.3,0.2-0.5,0.5-0.5s0.5,0.2,0.5,0.5v1.9    C62.3,44.7,62.1,44.9,61.8,44.9z"/><path id="XMLID_2296_" fill="#594454" d="M44.3,66c-0.3,0-0.5-0.2-0.5-0.5v-5c0-0.3,0.2-0.5,0.5-0.5s0.5,0.2,0.5,0.5v5C44.8,65.8,44.6,66,44.3,66z"/><path id="XMLID_2295_" fill="#594454" d="M47.3,66c-0.3,0-0.5-0.2-0.5-0.5v-5c0-0.3,0.2-0.5,0.5-0.5s0.5,0.2,0.5,0.5v5C47.8,65.8,47.6,66,47.3,66z"/><path id="XMLID_2294_" fill="#594454" d="M50.3,66c-0.3,0-0.5-0.2-0.5-0.5v-5c0-0.3,0.2-0.5,0.5-0.5s0.5,0.2,0.5,0.5v5C50.8,65.8,50.6,66,50.3,66z"/><path id="XMLID_2293_" fill="#594454" d="M53.3,66c-0.3,0-0.5-0.2-0.5-0.5v-5c0-0.3,0.2-0.5,0.5-0.5s0.5,0.2,0.5,0.5v5C53.8,65.8,53.6,66,53.3,66z"/><path id="XMLID_2292_" fill="#594454" d="M56.3,66c-0.3,0-0.5-0.2-0.5-0.5v-5c0-0.3,0.2-0.5,0.5-0.5s0.5,0.2,0.5,0.5v5C56.8,65.8,56.6,66,56.3,66z"/><path id="XMLID_2291_" fill="#594454" d="M33.8,91c-0.3,0-0.5-0.2-0.5-0.5V78.6c0-2.4-1.3-4.5-3.4-5.5c-0.1,0-0.1,0-0.2,0c-2.1,1.1-3.4,3.2-3.4,5.5    v11.9c0,0.3-0.2,0.5-0.5,0.5s-0.5-0.2-0.5-0.5V78.6c0-2.7,1.5-5.2,4-6.4c0.3-0.2,0.7-0.2,1.1,0c2.5,1.2,4,3.7,4,6.4v11.9    C34.3,90.8,34.1,91,33.8,91z"/><path id="XMLID_2290_" fill="#594454" d="M72.8,91h-4c-0.3,0-0.5-0.2-0.5-0.5v-7c0-2.6,2.3-3.4,2.4-3.5c0.1,0,0.2,0,0.3,0c0.1,0,2.3,0.9,2.3,3.5v7    C73.3,90.8,73.1,91,72.8,91z M69.3,90h3v-6.5c0-1.5-1-2.2-1.5-2.5c-0.4,0.2-1.5,0.9-1.5,2.5V90z"/><path id="XMLID_2289_" fill="#594454" d="M74.8,79h-7.9c-0.3,0-0.5-0.2-0.5-0.5s0.2-0.5,0.5-0.5h7.9c0.3,0,0.5,0.2,0.5,0.5S75,79,74.8,79z"/><path id="XMLID_1569_" fill="#594454" d="M74.8,91c-0.3,0-0.5-0.2-0.5-0.5V78.6c0-2.4-1.3-4.5-3.4-5.5c-0.1,0-0.1,0-0.2,0c-2.1,1.1-3.4,3.2-3.4,5.5    v11.9c0,0.3-0.2,0.5-0.5,0.5s-0.5-0.2-0.5-0.5V78.6c0-2.7,1.5-5.2,4-6.4c0.3-0.2,0.7-0.2,1.1,0c2.5,1.2,4,3.7,4,6.4v11.9    C75.3,90.8,75.1,91,74.8,91z"/><path id="XMLID_1567_" fill="#594454" d="M59.6,54H41.3c-0.3,0-0.5-0.2-0.5-0.5S41,53,41.3,53h18.3c0.3,0,0.5,0.2,0.5,0.5S59.9,54,59.6,54z"/><path id="XMLID_1565_" fill="#594454" d="M59.6,66H41.3c-0.3,0-0.5-0.2-0.5-0.5s0.2-0.5,0.5-0.5h18.3c0.3,0,0.5,0.2,0.5,0.5S59.9,66,59.6,66z"/><path id="XMLID_1168_" fill="#594454" d="M59.8,51H40.3c-0.3,0-0.5-0.2-0.5-0.5S40,50,40.3,50h19.5c0.3,0,0.5,0.2,0.5,0.5S60.1,51,59.8,51z"/></svg>