<?xml version="1.0" encoding="UTF-8" standalone="no"?>
<!DOCTYPE svg PUBLIC "-//W3C//DTD SVG 1.1//EN" "http://www.w3.org/Graphics/SVG/1.1/DTD/svg11.dtd">
<svg version="1.1" xmlns="http://www.w3.org/2000/svg" xmlns:xlink="http://www.w3.org/1999/xlink" preserveAspectRatio="xMidYMid meet" viewBox="0 0 640 640" width="640" height="640"><defs><path d="M217.94 116.84C217.14 118.43 213.17 126.37 206.02 140.68C199.53 140.68 195.92 140.68 195.2 140.68C193.99 140.68 192.88 141.36 192.34 142.44C190.42 146.28 175.06 177 173.14 180.84C173.12 180.86 173.14 180.9 173.12 180.92C172.93 181.34 172.8 181.78 172.8 182.26C172.8 183.54 172.8 193.78 172.8 195.06C172.8 196.83 174.23 198.26 176 198.26C176.64 198.26 179.84 198.26 185.6 198.26L185.6 246.58C164.67 244.48 153.05 243.32 150.72 243.09C150.68 243.08 150.63 243.1 150.59 243.1C150.52 243.1 150.47 243.06 150.4 243.06C144 243.06 92.8 243.06 86.4 243.06C86.33 243.06 86.28 243.1 86.21 243.1C86.17 243.1 86.12 243.08 86.08 243.09C79.68 243.73 28.48 248.85 22.08 249.49C20.44 249.65 19.2 251.02 19.2 252.66C19.2 257.78 19.2 283.38 19.2 329.46L19.2 576C10.55 576 5.74 576 4.78 576C1.91 576 0 577.28 0 579.2C0 581.12 1.91 582.4 4.78 582.4C67.82 582.4 572.18 582.4 635.22 582.4C638.09 582.4 640 581.12 640 579.2C640 577.28 638.09 576 635.22 576C634.69 576 632.01 576 627.2 576L627.2 329.46C627.2 283.38 627.2 257.78 627.2 252.66C627.2 251.02 625.96 249.65 624.32 249.49C617.92 248.85 566.72 243.73 560.32 243.09C560.28 243.08 560.23 243.1 560.19 243.1C560.12 243.1 560.07 243.06 560 243.06C553.6 243.06 502.4 243.06 496 243.06C495.93 243.06 495.88 243.1 495.81 243.1C495.77 243.1 495.72 243.08 495.68 243.09C493.35 243.32 481.73 244.48 460.8 246.58L460.8 198.26C466.56 198.26 469.76 198.26 470.4 198.26C472.17 198.26 473.6 196.84 473.6 195.06C473.6 193.78 473.6 183.54 473.6 182.26C473.6 182.22 473.58 182.19 473.58 182.15C473.57 181.97 473.51 181.8 473.48 181.62C473.42 181.39 473.39 181.15 473.29 180.94C473.27 180.91 473.28 180.87 473.26 180.84C471.34 177 455.98 146.28 454.06 142.44C453.52 141.36 452.41 140.66 451.2 140.66C450.48 140.66 446.87 140.66 440.38 140.66C433.23 126.37 429.26 118.43 428.46 116.84C427.92 115.76 426.81 115.08 425.6 115.08C411.95 115.08 343.68 115.08 220.8 115.08C219.25 115.53 218.3 116.12 217.94 116.84ZM423.62 121.46C429.55 133.31 432.84 139.9 433.5 141.21C432.62 141.78 432 142.73 432 143.86C432 145.63 433.43 147.06 435.2 147.06C435.28 147.06 435.69 147.06 436.42 147.06L439.62 153.46L206.78 153.46L222.78 121.46L423.62 121.46ZM449.22 147.06L465.22 179.06L435.2 179.06L435.2 172.66C440.96 172.66 444.16 172.66 444.8 172.66C446.57 172.66 448 171.24 448 169.46C448 168.18 448 157.94 448 156.66C448 156.18 447.87 155.74 447.68 155.32C447.66 155.3 447.68 155.26 447.66 155.24C447.39 154.69 446.03 151.97 443.58 147.06L449.22 147.06ZM202.82 147.08C200.37 151.97 199.01 154.69 198.74 155.24C198.72 155.26 198.74 155.3 198.72 155.32C198.53 155.74 198.4 156.18 198.4 156.66C198.4 157.94 198.4 168.18 198.4 169.46C198.4 171.23 199.83 172.66 201.6 172.66C202.24 172.66 205.44 172.66 211.2 172.66L211.2 179.06L181.18 179.06L197.18 147.08L202.82 147.08ZM441.6 159.86L441.6 166.26L204.8 166.26L204.8 159.86L441.6 159.86ZM243.2 172.66C243.2 188.59 243.2 197.44 243.2 199.21C241.47 198.63 239.38 198.26 236.8 198.26C229.74 198.26 224 202.93 224 208.66C224 208.9 224 210.82 224 211.06C222.23 211.06 220.8 212.5 220.8 214.26C220.8 216.03 222.23 217.46 224 217.46C224 219.6 224 230.26 224 249.46L217.6 249.46L217.6 195.06L217.6 182.26L217.6 172.66L243.2 172.66ZM396.8 172.66C396.8 195.7 396.8 208.5 396.8 211.06C395.03 211.06 393.6 212.5 393.6 214.26C393.6 216.03 395.03 217.46 396.8 217.46C396.8 219.6 396.8 230.26 396.8 249.46L390.4 249.46C390.41 214.9 390.42 195.7 390.42 191.86C390.42 184.8 383.24 179.06 374.41 179.06C369.17 179.06 364.53 181.12 361.61 184.25C358.69 181.12 354.06 179.06 348.81 179.06C343.57 179.06 338.93 181.12 336.01 184.25C333.09 181.12 328.46 179.06 323.21 179.06C317.97 179.06 313.33 181.12 310.41 184.25C307.49 181.12 302.86 179.06 297.61 179.06C292.37 179.06 287.73 181.12 284.81 184.25C281.89 181.12 277.26 179.06 272.01 179.06C263.19 179.06 256 184.8 256 191.86C256 192.5 256 197.62 256 198.26C254.23 198.26 252.8 199.7 252.8 201.46C252.8 203.23 254.23 204.66 256 204.66C256 207.65 256 222.58 256 249.46L249.6 249.46L249.6 172.66L396.8 172.66ZM428.8 172.66L428.8 182.26L428.8 195.06L428.8 249.46L422.4 249.46C422.4 226.42 422.4 213.62 422.4 211.06C422.4 210.63 422.32 210.24 422.16 209.86C422.31 209.49 422.4 209.09 422.4 208.66C422.4 202.93 416.66 198.26 409.6 198.26C407.26 198.26 405.09 198.82 403.2 199.71C403.2 197.91 403.2 188.89 403.2 172.66L428.8 172.66ZM211.2 185.46L211.2 191.86L179.2 191.86L179.2 185.46L211.2 185.46ZM281.61 191.78C281.61 191.8 281.6 191.83 281.6 191.86C281.6 192.5 281.6 197.62 281.6 198.26C279.83 198.26 278.4 199.7 278.4 201.46C278.4 203.23 279.83 204.66 281.6 204.66C281.6 206.8 281.6 217.46 281.6 236.66L262.4 236.66C262.4 217.46 262.4 206.8 262.4 204.66C264.17 204.66 265.6 203.23 265.6 201.46C265.6 199.7 264.17 198.26 262.4 198.26C262.4 197.62 262.4 192.5 262.4 191.86C262.4 188.46 266.89 185.46 272.01 185.46C277.09 185.46 281.54 188.41 281.61 191.78ZM307.21 191.78C307.21 191.8 307.2 191.83 307.2 191.86C307.2 192.5 307.2 197.62 307.2 198.26C305.43 198.26 304 199.7 304 201.46C304 203.23 305.43 204.66 307.2 204.66C307.2 206.8 307.2 217.46 307.2 236.66L288.01 236.66C288.02 217.46 288.02 206.8 288.02 204.66C289.78 204.65 291.2 203.22 291.2 201.46C291.2 199.7 289.78 198.28 288.02 198.26C288.02 197.62 288.02 192.5 288.02 191.86C288.02 191.83 288.01 191.8 288.01 191.78C288.09 188.41 292.54 185.46 297.61 185.46C302.69 185.46 307.14 188.41 307.21 191.78ZM332.81 191.78C332.81 191.8 332.8 191.83 332.8 191.86C332.8 192.5 332.8 197.62 332.8 198.26C331.03 198.26 329.6 199.7 329.6 201.46C329.6 203.23 331.03 204.66 332.8 204.66C332.8 206.8 332.8 217.46 332.8 236.66L313.61 236.66C313.62 217.46 313.62 206.8 313.62 204.66C315.38 204.65 316.8 203.22 316.8 201.46C316.8 199.7 315.38 198.28 313.62 198.26C313.62 197.62 313.62 192.5 313.62 191.86C313.62 191.83 313.61 191.8 313.61 191.78C313.69 188.41 318.14 185.46 323.21 185.46C328.29 185.46 332.74 188.41 332.81 191.78ZM358.41 191.78C358.41 191.8 358.4 191.83 358.4 191.86C358.4 192.5 358.4 197.62 358.4 198.26C356.63 198.26 355.2 199.7 355.2 201.46C355.2 203.23 356.63 204.66 358.4 204.66C358.4 206.8 358.4 217.46 358.4 236.66L339.21 236.66C339.22 217.46 339.22 206.8 339.22 204.66C340.98 204.65 342.4 203.22 342.4 201.46C342.4 199.7 340.98 198.28 339.22 198.26C339.22 197.62 339.22 192.5 339.22 191.86C339.22 191.83 339.21 191.8 339.21 191.78C339.29 188.41 343.74 185.46 348.81 185.46C353.89 185.46 358.34 188.41 358.41 191.78ZM384.02 191.86C384.02 192.51 384.02 197.67 384.02 198.31C383.18 198.31 382.33 198.61 381.75 199.22C381.12 199.81 380.8 200.63 380.8 201.46C380.8 202.29 381.11 203.12 381.75 203.7C382.33 204.34 383.17 204.66 384 204.66C384.01 204.66 384.02 204.66 384.02 204.66C384.02 206.8 384.02 217.46 384.01 236.66L364.81 236.66C364.82 217.46 364.82 206.8 364.82 204.66C366.58 204.65 368 203.22 368 201.46C368 199.7 366.58 198.28 364.82 198.26C364.82 197.62 364.82 192.5 364.82 191.86C364.82 191.83 364.81 191.8 364.81 191.78C364.89 188.41 369.34 185.46 374.41 185.46C379.53 185.46 384.02 188.46 384.02 191.86ZM467.2 185.46L467.2 191.86L435.2 191.86L435.2 185.46L467.2 185.46ZM211.2 198.26L211.2 249.14L192 247.21L192 198.26L211.2 198.26ZM454.4 198.26L454.4 247.21L435.2 249.14L435.2 198.26L454.4 198.26ZM243.2 207.16C243.2 207.57 243.2 210.8 243.2 211.2C242.37 211.2 241.57 211.42 240.96 212.02C240.33 212.61 240.01 213.43 240.01 214.26C240.01 215.09 240.32 215.92 240.96 216.5C241.22 216.81 241.6 217.08 241.99 217.21C242.37 217.4 242.75 217.46 243.2 217.46C243.2 218.74 243.2 225.14 243.2 236.66L230.4 236.66C230.4 225.14 230.4 218.74 230.4 217.46C232.17 217.46 233.6 216.03 233.6 214.26C233.6 212.5 232.17 211.06 230.4 211.06C230.4 210.82 230.4 208.9 230.4 208.66C230.4 206.77 233.14 204.66 236.8 204.66C239.88 204.66 243.2 205.44 243.2 207.16ZM416 208.66C416 209.09 416.08 209.49 416.24 209.86C416.08 210.24 416 210.63 416 211.06C416 211.08 416 211.19 416 211.2C415.15 211.2 414.33 211.42 413.76 212.02C413.13 212.61 412.81 213.43 412.81 214.26C412.81 215.09 413.12 215.92 413.76 216.5C414.02 216.81 414.4 217.08 414.79 217.21C415.17 217.4 415.55 217.46 416 217.46C416 218.74 416 225.14 416 236.66L403.2 236.66C403.2 225.14 403.2 218.74 403.2 217.46C404.97 217.46 406.4 216.03 406.4 214.26C406.4 212.5 404.97 211.06 403.2 211.06C403.2 210.82 403.2 208.9 403.2 208.66C403.2 206.77 405.94 204.66 409.6 204.66C413.26 204.66 416 206.77 416 208.66ZM243.2 243.06L243.2 249.46L230.4 249.46L230.4 243.06L243.2 243.06ZM281.6 243.06L281.6 249.46L262.4 249.46L262.4 243.06L281.6 243.06ZM307.2 243.06L307.2 249.46L288 249.46L288 243.06L307.2 243.06ZM332.8 243.06L332.8 249.46L313.6 249.46L313.6 243.06L332.8 243.06ZM358.4 243.06L358.4 249.46L339.2 249.46L339.2 243.06L358.4 243.06ZM384 243.06L384 249.46L364.8 249.46L364.8 243.06L384 243.06ZM416 243.06L416 249.46L403.2 249.46L403.2 243.06L416 243.06ZM147.2 249.46L147.2 262.26L89.6 262.26L89.6 249.46L147.2 249.46ZM556.8 249.46L556.8 262.26L499.2 262.26L499.2 249.46L556.8 249.46ZM83.2 262.26L25.6 262.26L25.6 255.56L83.2 249.8L83.2 262.26ZM211.2 255.56L211.2 262.26L153.6 262.26L153.6 249.8L211.2 255.56ZM492.8 262.26L435.2 262.26L435.2 255.56L492.8 249.8L492.8 262.26ZM620.8 255.56L620.8 262.26L563.2 262.26L563.2 249.8L620.8 255.56ZM236.8 255.86L236.8 262.26L217.6 262.26L217.6 255.86L236.8 255.86ZM403.2 255.86L403.2 268.66L243.2 268.66L243.2 255.86L403.2 255.86ZM428.8 255.86L428.8 262.26L409.6 262.26L409.6 255.86L428.8 255.86ZM83.2 268.66L83.2 326.26L25.6 326.26L25.6 268.66L83.2 268.66ZM147.2 268.66L147.2 326.26L89.6 326.26L89.6 268.66L147.2 268.66ZM211.2 268.66L211.2 326.26L153.6 326.26L153.6 268.66L211.2 268.66ZM236.8 268.66C236.8 270.58 236.8 271.65 236.8 271.86C236.8 273.63 238.23 275.06 240 275.06C240.21 275.06 241.28 275.06 243.2 275.06L243.2 291.06L243.2 316.66L243.2 325.2L243.2 326.4L217.6 326.4L217.6 268.66L236.8 268.66ZM428.8 268.66L428.8 326.4L403.2 326.4L403.2 325.2L403.2 291.06L403.2 275.06C405.12 275.06 406.19 275.06 406.4 275.06C408.17 275.06 409.6 273.64 409.6 271.86C409.6 271.65 409.6 270.58 409.6 268.66L428.8 268.66ZM492.8 268.66L492.8 326.26L435.2 326.26L435.2 268.66L492.8 268.66ZM556.8 268.66L556.8 326.26L499.2 326.26L499.2 268.66L556.8 268.66ZM620.8 268.66L620.8 326.26L563.2 326.26L563.2 268.66L620.8 268.66ZM396.8 275.06L396.8 287.86L249.6 287.86L249.6 281.46L249.6 275.06L396.8 275.06ZM44.8 291.06C44.8 292.98 44.8 308.34 44.8 310.26C44.8 312.03 46.23 313.46 48 313.46C49.28 313.46 59.52 313.46 60.8 313.46C62.57 313.46 64 312.04 64 310.26C64 308.34 64 292.98 64 291.06C64 285.77 59.69 281.46 54.4 281.46C49.11 281.46 44.8 285.77 44.8 291.06ZM108.8 291.06C108.8 292.98 108.8 308.34 108.8 310.26C108.8 312.03 110.23 313.46 112 313.46C113.28 313.46 123.52 313.46 124.8 313.46C126.57 313.46 128 312.04 128 310.26C128 308.34 128 292.98 128 291.06C128 285.77 123.69 281.46 118.4 281.46C113.11 281.46 108.8 285.77 108.8 291.06ZM172.8 291.06C172.8 292.98 172.8 308.34 172.8 310.26C172.8 312.03 174.23 313.46 176 313.46C177.28 313.46 187.52 313.46 188.8 313.46C190.57 313.46 192 312.04 192 310.26C192 308.34 192 292.98 192 291.06C192 285.77 187.69 281.46 182.4 281.46C177.11 281.46 172.8 285.77 172.8 291.06ZM454.4 291.06C454.4 292.98 454.4 308.34 454.4 310.26C454.4 312.03 455.83 313.46 457.6 313.46C458.88 313.46 469.12 313.46 470.4 313.46C472.17 313.46 473.6 312.04 473.6 310.26C473.6 308.34 473.6 292.98 473.6 291.06C473.6 285.77 469.29 281.46 464 281.46C458.71 281.46 454.4 285.77 454.4 291.06ZM518.4 291.06C518.4 292.98 518.4 308.34 518.4 310.26C518.4 312.03 519.83 313.46 521.6 313.46C522.88 313.46 533.12 313.46 534.4 313.46C536.17 313.46 537.6 312.04 537.6 310.26C537.6 308.34 537.6 292.98 537.6 291.06C537.6 285.77 533.29 281.46 528 281.46C522.71 281.46 518.4 285.77 518.4 291.06ZM582.4 291.06C582.4 292.98 582.4 308.34 582.4 310.26C582.4 312.03 583.83 313.46 585.6 313.46C586.88 313.46 597.12 313.46 598.4 313.46C600.17 313.46 601.6 312.04 601.6 310.26C601.6 308.34 601.6 292.98 601.6 291.06C601.6 285.77 597.29 281.46 592 281.46C586.71 281.46 582.4 285.77 582.4 291.06ZM32 284.8C32 287.36 32 307.84 32 310.4C32 312.17 33.43 313.6 35.2 313.6C36.97 313.6 38.4 312.17 38.4 310.4C38.4 307.84 38.4 287.36 38.4 284.8C38.4 283.03 36.97 281.6 35.2 281.6C33.43 281.6 32 283.03 32 284.8ZM70.4 284.8C70.4 287.36 70.4 307.84 70.4 310.4C70.4 312.17 71.83 313.6 73.6 313.6C75.37 313.6 76.8 312.17 76.8 310.4C76.8 307.84 76.8 287.36 76.8 284.8C76.8 283.03 75.37 281.6 73.6 281.6C71.83 281.6 70.4 283.03 70.4 284.8ZM96 284.8C96 287.36 96 307.84 96 310.4C96 312.17 97.43 313.6 99.2 313.6C100.97 313.6 102.4 312.17 102.4 310.4C102.4 307.84 102.4 287.36 102.4 284.8C102.4 283.03 100.97 281.6 99.2 281.6C97.43 281.6 96 283.03 96 284.8ZM134.4 284.8C134.4 287.36 134.4 307.84 134.4 310.4C134.4 312.17 135.83 313.6 137.6 313.6C139.37 313.6 140.8 312.17 140.8 310.4C140.8 307.84 140.8 287.36 140.8 284.8C140.8 283.03 139.37 281.6 137.6 281.6C135.83 281.6 134.4 283.03 134.4 284.8ZM160 284.8C160 287.36 160 307.84 160 310.4C160 312.17 161.43 313.6 163.2 313.6C164.97 313.6 166.4 312.17 166.4 310.4C166.4 307.84 166.4 287.36 166.4 284.8C166.4 283.03 164.97 281.6 163.2 281.6C161.43 281.6 160 283.03 160 284.8ZM198.4 284.8C198.4 287.36 198.4 307.84 198.4 310.4C198.4 312.17 199.83 313.6 201.6 313.6C203.37 313.6 204.8 312.17 204.8 310.4C204.8 307.84 204.8 287.36 204.8 284.8C204.8 283.03 203.37 281.6 201.6 281.6C199.83 281.6 198.4 283.03 198.4 284.8ZM441.6 284.8C441.6 287.36 441.6 307.84 441.6 310.4C441.6 312.17 443.03 313.6 444.8 313.6C446.57 313.6 448 312.17 448 310.4C448 307.84 448 287.36 448 284.8C448 283.03 446.57 281.6 444.8 281.6C443.03 281.6 441.6 283.03 441.6 284.8ZM480 284.8C480 287.36 480 307.84 480 310.4C480 312.17 481.43 313.6 483.2 313.6C484.97 313.6 486.4 312.17 486.4 310.4C486.4 307.84 486.4 287.36 486.4 284.8C486.4 283.03 484.97 281.6 483.2 281.6C481.43 281.6 480 283.03 480 284.8ZM505.6 284.8C505.6 287.36 505.6 307.84 505.6 310.4C505.6 312.17 507.03 313.6 508.8 313.6C510.57 313.6 512 312.17 512 310.4C512 307.84 512 287.36 512 284.8C512 283.03 510.57 281.6 508.8 281.6C507.03 281.6 505.6 283.03 505.6 284.8ZM544 284.8C544 287.36 544 307.84 544 310.4C544 312.17 545.43 313.6 547.2 313.6C548.97 313.6 550.4 312.17 550.4 310.4C550.4 307.84 550.4 287.36 550.4 284.8C550.4 283.03 548.97 281.6 547.2 281.6C545.43 281.6 544 283.03 544 284.8ZM569.6 284.8C569.6 287.36 569.6 307.84 569.6 310.4C569.6 312.17 571.03 313.6 572.8 313.6C574.57 313.6 576 312.17 576 310.4C576 307.84 576 287.36 576 284.8C576 283.03 574.57 281.6 572.8 281.6C571.03 281.6 569.6 283.03 569.6 284.8ZM608 284.8C608 287.36 608 307.84 608 310.4C608 312.17 609.43 313.6 611.2 313.6C612.97 313.6 614.4 312.17 614.4 310.4C614.4 307.84 614.4 287.36 614.4 284.8C614.4 283.03 612.97 281.6 611.2 281.6C609.43 281.6 608 283.03 608 284.8ZM57.6 291.06C57.6 292.13 57.6 297.46 57.6 307.06L51.2 307.06C51.2 297.46 51.2 292.13 51.2 291.06C51.2 289.3 52.64 287.86 54.4 287.86C56.16 287.86 57.6 289.3 57.6 291.06ZM121.6 291.06C121.6 292.13 121.6 297.46 121.6 307.06L115.2 307.06C115.2 297.46 115.2 292.13 115.2 291.06C115.2 289.3 116.64 287.86 118.4 287.86C120.16 287.86 121.6 289.3 121.6 291.06ZM185.6 291.06C185.6 292.13 185.6 297.46 185.6 307.06L179.2 307.06C179.2 297.46 179.2 292.13 179.2 291.06C179.2 289.3 180.64 287.86 182.4 287.86C184.16 287.86 185.6 289.3 185.6 291.06ZM467.2 291.06C467.2 292.13 467.2 297.46 467.2 307.06L460.8 307.06C460.8 297.46 460.8 292.13 460.8 291.06C460.8 289.3 462.24 287.86 464 287.86C465.76 287.86 467.2 289.3 467.2 291.06ZM531.2 291.06C531.2 292.13 531.2 297.46 531.2 307.06L524.8 307.06C524.8 297.46 524.8 292.13 524.8 291.06C524.8 289.3 526.24 287.86 528 287.86C529.76 287.86 531.2 289.3 531.2 291.06ZM595.2 291.06C595.2 292.13 595.2 297.46 595.2 307.06L588.8 307.06C588.8 297.46 588.8 292.13 588.8 291.06C588.8 289.3 590.24 287.86 592 287.86C593.76 287.86 595.2 289.3 595.2 291.06ZM396.8 294.26C396.8 300.08 396.8 303.3 396.8 303.95C394.12 301.92 390.82 300.66 387.2 300.66C381.95 300.66 377.32 303.24 374.4 307.16C371.48 303.24 366.85 300.66 361.6 300.66C356.35 300.66 351.72 303.24 348.8 307.16C345.88 303.24 341.25 300.66 336 300.66C330.75 300.66 326.12 303.24 323.2 307.16C320.28 303.24 315.65 300.66 310.4 300.66C305.15 300.66 300.52 303.24 297.6 307.16C294.68 303.24 290.05 300.66 284.8 300.66C279.55 300.66 274.92 303.24 272 307.16C269.08 303.24 264.45 300.66 259.2 300.66C255.58 300.66 252.28 301.92 249.6 303.95C249.6 303.3 249.6 300.08 249.6 294.26L396.8 294.26ZM268.8 316.66C268.8 317.52 268.8 324.35 268.8 325.2C268.8 325.58 268.89 325.93 269.01 326.26C267.72 326.26 261.25 326.26 249.6 326.26C249.6 320.5 249.6 317.3 249.6 316.66C249.6 311.37 253.91 307.06 259.2 307.06C264.49 307.06 268.8 311.37 268.8 316.66ZM294.4 316.66C294.4 317.52 294.4 324.35 294.4 325.2C294.4 325.58 294.49 325.93 294.61 326.26C292.65 326.26 276.95 326.26 274.99 326.26C275.11 325.93 275.2 325.58 275.2 325.2C275.2 324.35 275.2 317.52 275.2 316.66C275.2 311.37 279.51 307.06 284.8 307.06C290.09 307.06 294.4 311.37 294.4 316.66ZM320 316.66C320 317.52 320 324.35 320 325.2C320 325.58 320.09 325.93 320.21 326.26C318.25 326.26 302.55 326.26 300.59 326.26C300.71 325.93 300.8 325.58 300.8 325.2C300.8 324.35 300.8 317.52 300.8 316.66C300.8 311.37 305.11 307.06 310.4 307.06C315.69 307.06 320 311.37 320 316.66ZM345.6 316.66C345.6 317.52 345.6 324.35 345.6 325.2C345.6 325.58 345.69 325.93 345.81 326.26C343.85 326.26 328.15 326.26 326.19 326.26C326.31 325.93 326.4 325.58 326.4 325.2C326.4 324.35 326.4 317.52 326.4 316.66C326.4 311.37 330.71 307.06 336 307.06C341.29 307.06 345.6 311.37 345.6 316.66ZM371.2 316.66C371.2 317.52 371.2 324.35 371.2 325.2C371.2 325.58 371.29 325.93 371.41 326.26C369.45 326.26 353.75 326.26 351.79 326.26C351.91 325.93 352 325.58 352 325.2C352 324.35 352 317.52 352 316.66C352 311.37 356.31 307.06 361.6 307.06C366.89 307.06 371.2 311.37 371.2 316.66ZM396.8 316.66C396.8 317.3 396.8 320.5 396.8 326.26C385.15 326.26 378.68 326.26 377.39 326.26C377.51 325.93 377.6 325.58 377.6 325.2C377.6 324.35 377.6 317.52 377.6 316.66C377.6 311.37 381.91 307.06 387.2 307.06C392.49 307.06 396.8 311.37 396.8 316.66ZM83.2 332.66L83.2 339.06L25.6 339.06L25.6 332.66L83.2 332.66ZM147.2 332.66L147.2 339.06L89.6 339.06L89.6 332.66L147.2 332.66ZM211.2 332.66L211.2 339.06L153.6 339.06L153.6 332.66L211.2 332.66ZM396.8 332.66L396.8 339.06L249.6 339.06L249.6 332.66L396.8 332.66ZM492.8 332.66L492.8 339.06L444.8 339.06L435.2 339.06L435.2 332.66L492.8 332.66ZM556.8 332.66L556.8 339.06L499.2 339.06L499.2 332.66L556.8 332.66ZM620.8 332.66L620.8 339.06L563.2 339.06L563.2 332.66L620.8 332.66ZM243.2 332.8L243.2 339.06L217.6 339.06L217.6 332.8L243.2 332.8ZM428.8 332.8L428.8 339.06L403.2 339.06L403.2 332.8L428.8 332.8ZM83.2 345.46L83.2 575.86L25.6 575.86L25.6 345.46L83.2 345.46ZM147.2 345.46L147.2 575.86L89.6 575.86L89.6 345.46L147.2 345.46ZM211.2 345.46L211.2 575.86L153.6 575.86L153.6 345.46L211.2 345.46ZM243.2 345.46L243.2 575.86L217.6 575.86L217.6 345.46L243.2 345.46ZM396.8 345.46L396.8 575.86L384 575.86C384 518.56 384 486.72 384 480.35C384 461.16 373.73 443.19 357.2 433.46C354.28 431.75 330.95 418.03 328.04 416.31C326.99 415.7 325.71 415.72 324.7 416.36C321.65 418.28 297.26 433.64 294.21 435.56C278.3 445.57 268.8 462.78 268.8 481.59C268.8 487.87 268.8 519.3 268.8 575.86L249.6 575.86L249.6 345.46L396.8 345.46ZM428.8 345.46L428.8 575.86L403.2 575.86L403.2 345.46L428.8 345.46ZM444.8 345.46L492.8 345.46L492.8 575.86L435.2 575.86L435.2 345.46L444.8 345.46ZM556.8 345.46L556.8 575.86L499.2 575.86L499.2 345.46L556.8 345.46ZM620.8 345.46L620.8 575.86L563.2 575.86L563.2 345.46L620.8 345.46ZM32 361.6C32 365.44 32 396.16 32 400C32 401.77 33.43 403.2 35.2 403.2C36.97 403.2 38.4 401.77 38.4 400C38.4 396.16 38.4 365.44 38.4 361.6C38.4 359.83 36.97 358.4 35.2 358.4C33.43 358.4 32 359.83 32 361.6ZM51.2 361.6C51.2 365.44 51.2 396.16 51.2 400C51.2 401.77 52.63 403.2 54.4 403.2C56.17 403.2 57.6 401.77 57.6 400C57.6 396.16 57.6 365.44 57.6 361.6C57.6 359.83 56.17 358.4 54.4 358.4C52.63 358.4 51.2 359.83 51.2 361.6ZM70.4 361.6C70.4 365.44 70.4 396.16 70.4 400C70.4 401.77 71.83 403.2 73.6 403.2C75.37 403.2 76.8 401.77 76.8 400C76.8 396.16 76.8 365.44 76.8 361.6C76.8 359.83 75.37 358.4 73.6 358.4C71.83 358.4 70.4 359.83 70.4 361.6ZM96 361.6C96 365.44 96 396.16 96 400C96 401.77 97.43 403.2 99.2 403.2C100.97 403.2 102.4 401.77 102.4 400C102.4 396.16 102.4 365.44 102.4 361.6C102.4 359.83 100.97 358.4 99.2 358.4C97.43 358.4 96 359.83 96 361.6ZM115.2 361.6C115.2 365.44 115.2 396.16 115.2 400C115.2 401.77 116.63 403.2 118.4 403.2C120.17 403.2 121.6 401.77 121.6 400C121.6 396.16 121.6 365.44 121.6 361.6C121.6 359.83 120.17 358.4 118.4 358.4C116.63 358.4 115.2 359.83 115.2 361.6ZM134.4 361.6C134.4 365.44 134.4 396.16 134.4 400C134.4 401.77 135.83 403.2 137.6 403.2C139.37 403.2 140.8 401.77 140.8 400C140.8 396.16 140.8 365.44 140.8 361.6C140.8 359.83 139.37 358.4 137.6 358.4C135.83 358.4 134.4 359.83 134.4 361.6ZM160 361.6C160 365.44 160 396.16 160 400C160 401.77 161.43 403.2 163.2 403.2C164.97 403.2 166.4 401.77 166.4 400C166.4 396.16 166.4 365.44 166.4 361.6C166.4 359.83 164.97 358.4 163.2 358.4C161.43 358.4 160 359.83 160 361.6ZM179.2 361.6C179.2 365.44 179.2 396.16 179.2 400C179.2 401.77 180.63 403.2 182.4 403.2C184.17 403.2 185.6 401.77 185.6 400C185.6 396.16 185.6 365.44 185.6 361.6C185.6 359.83 184.17 358.4 182.4 358.4C180.63 358.4 179.2 359.83 179.2 361.6ZM198.4 361.6C198.4 365.44 198.4 396.16 198.4 400C198.4 401.77 199.83 403.2 201.6 403.2C203.37 403.2 204.8 401.77 204.8 400C204.8 396.16 204.8 365.44 204.8 361.6C204.8 359.83 203.37 358.4 201.6 358.4C199.83 358.4 198.4 359.83 198.4 361.6ZM227.2 361.6C227.2 365.44 227.2 396.16 227.2 400C227.2 401.77 228.63 403.2 230.4 403.2C232.17 403.2 233.6 401.77 233.6 400C233.6 396.16 233.6 365.44 233.6 361.6C233.6 359.83 232.17 358.4 230.4 358.4C228.63 358.4 227.2 359.83 227.2 361.6ZM268.8 361.6C268.8 365.44 268.8 396.16 268.8 400C268.8 401.77 270.23 403.2 272 403.2C273.77 403.2 275.2 401.77 275.2 400C275.2 396.16 275.2 365.44 275.2 361.6C275.2 359.83 273.77 358.4 272 358.4C270.23 358.4 268.8 359.83 268.8 361.6ZM294.4 361.6C294.4 365.44 294.4 396.16 294.4 400C294.4 401.77 295.83 403.2 297.6 403.2C299.37 403.2 300.8 401.77 300.8 400C300.8 396.16 300.8 365.44 300.8 361.6C300.8 359.83 299.37 358.4 297.6 358.4C295.83 358.4 294.4 359.83 294.4 361.6ZM320 361.6C320 365.44 320 396.16 320 400C320 401.77 321.43 403.2 323.2 403.2C324.97 403.2 326.4 401.77 326.4 400C326.4 396.16 326.4 365.44 326.4 361.6C326.4 359.83 324.97 358.4 323.2 358.4C321.43 358.4 320 359.83 320 361.6ZM345.6 361.6C345.6 365.44 345.6 396.16 345.6 400C345.6 401.77 347.03 403.2 348.8 403.2C350.57 403.2 352 401.77 352 400C352 396.16 352 365.44 352 361.6C352 359.83 350.57 358.4 348.8 358.4C347.03 358.4 345.6 359.83 345.6 361.6ZM371.2 361.6C371.2 365.44 371.2 396.16 371.2 400C371.2 401.77 372.63 403.2 374.4 403.2C376.17 403.2 377.6 401.77 377.6 400C377.6 396.16 377.6 365.44 377.6 361.6C377.6 359.83 376.17 358.4 374.4 358.4C372.63 358.4 371.2 359.83 371.2 361.6ZM412.8 361.6C412.8 365.44 412.8 396.16 412.8 400C412.8 401.77 414.23 403.2 416 403.2C417.77 403.2 419.2 401.77 419.2 400C419.2 396.16 419.2 365.44 419.2 361.6C419.2 359.83 417.77 358.4 416 358.4C414.23 358.4 412.8 359.83 412.8 361.6ZM441.6 361.6C441.6 365.44 441.6 396.16 441.6 400C441.6 401.77 443.03 403.2 444.8 403.2C446.57 403.2 448 401.77 448 400C448 396.16 448 365.44 448 361.6C448 359.83 446.57 358.4 444.8 358.4C443.03 358.4 441.6 359.83 441.6 361.6ZM460.8 361.6C460.8 365.44 460.8 396.16 460.8 400C460.8 401.77 462.23 403.2 464 403.2C465.77 403.2 467.2 401.77 467.2 400C467.2 396.16 467.2 365.44 467.2 361.6C467.2 359.83 465.77 358.4 464 358.4C462.23 358.4 460.8 359.83 460.8 361.6ZM480 361.6C480 365.44 480 396.16 480 400C480 401.77 481.43 403.2 483.2 403.2C484.97 403.2 486.4 401.77 486.4 400C486.4 396.16 486.4 365.44 486.4 361.6C486.4 359.83 484.97 358.4 483.2 358.4C481.43 358.4 480 359.83 480 361.6ZM505.6 361.6C505.6 365.44 505.6 396.16 505.6 400C505.6 401.77 507.03 403.2 508.8 403.2C510.57 403.2 512 401.77 512 400C512 396.16 512 365.44 512 361.6C512 359.83 510.57 358.4 508.8 358.4C507.03 358.4 505.6 359.83 505.6 361.6ZM524.8 361.6C524.8 365.44 524.8 396.16 524.8 400C524.8 401.77 526.23 403.2 528 403.2C529.77 403.2 531.2 401.77 531.2 400C531.2 396.16 531.2 365.44 531.2 361.6C531.2 359.83 529.77 358.4 528 358.4C526.23 358.4 524.8 359.83 524.8 361.6ZM544 361.6C544 365.44 544 396.16 544 400C544 401.77 545.43 403.2 547.2 403.2C548.97 403.2 550.4 401.77 550.4 400C550.4 396.16 550.4 365.44 550.4 361.6C550.4 359.83 548.97 358.4 547.2 358.4C545.43 358.4 544 359.83 544 361.6ZM569.6 361.6C569.6 365.44 569.6 396.16 569.6 400C569.6 401.77 571.03 403.2 572.8 403.2C574.57 403.2 576 401.77 576 400C576 396.16 576 365.44 576 361.6C576 359.83 574.57 358.4 572.8 358.4C571.03 358.4 569.6 359.83 569.6 361.6ZM588.8 361.6C588.8 365.44 588.8 396.16 588.8 400C588.8 401.77 590.23 403.2 592 403.2C593.77 403.2 595.2 401.77 595.2 400C595.2 396.16 595.2 365.44 595.2 361.6C595.2 359.83 593.77 358.4 592 358.4C590.23 358.4 588.8 359.83 588.8 361.6ZM608 361.6C608 365.44 608 396.16 608 400C608 401.77 609.43 403.2 611.2 403.2C612.97 403.2 614.4 401.77 614.4 400C614.4 396.16 614.4 365.44 614.4 361.6C614.4 359.83 612.97 358.4 611.2 358.4C609.43 358.4 608 359.83 608 361.6ZM275.2 419.06C275.2 424.36 279.51 428.66 284.8 428.66C290.09 428.66 294.4 424.36 294.4 419.06C294.4 413.77 290.09 409.46 284.8 409.46C279.51 409.46 275.2 413.77 275.2 419.06ZM352 419.06C352 424.36 356.31 428.66 361.6 428.66C366.89 428.66 371.2 424.36 371.2 419.06C371.2 413.77 366.89 409.46 361.6 409.46C356.31 409.46 352 413.77 352 419.06ZM288 419.06C288 420.82 286.56 422.26 284.8 422.26C283.04 422.26 281.6 420.82 281.6 419.06C281.6 417.3 283.04 415.86 284.8 415.86C286.56 415.86 288 417.3 288 419.06ZM364.8 419.06C364.8 420.82 363.36 422.26 361.6 422.26C359.84 422.26 358.4 420.82 358.4 419.06C358.4 417.3 359.84 415.86 361.6 415.86C363.36 415.86 364.8 417.3 364.8 419.06ZM353.94 438.98C368.53 447.56 377.6 463.42 377.6 480.35C377.6 486.72 377.6 518.56 377.6 575.86L364.8 575.86C364.8 518.76 364.8 487.03 364.8 480.69C364.8 479.09 364.7 477.51 364.49 475.94C363.02 464.96 356.55 455.06 346.89 449.38C345 448.27 329.91 439.39 328.02 438.28C328.02 438.27 328.02 438.28 328.01 438.28C327.9 438.21 327.34 437.88 326.34 437.29L324.69 438.32C312.85 445.78 306.28 449.92 304.96 450.75C294.34 457.44 288 468.93 288 481.49C288 487.78 288 519.24 288 575.86L275.2 575.86C275.2 519.3 275.2 487.87 275.2 481.59C275.2 464.99 283.58 449.8 297.62 440.96C299.55 439.75 309.16 433.7 326.46 422.81C342.95 432.51 352.11 437.9 353.94 438.98ZM343.64 454.89C346.29 456.45 348.6 458.43 350.61 460.66C349.21 460.66 342.21 460.66 329.6 460.66L329.6 446.62C338.02 451.58 342.7 454.34 343.64 454.89ZM323.2 460.66C310.99 460.66 304.21 460.66 302.85 460.66C304.49 458.98 306.32 457.45 308.38 456.16C309.36 455.54 314.31 452.43 323.2 446.82L323.2 460.66ZM358.14 476.78C358.27 477.79 358.32 478.82 358.35 479.86C356.43 479.86 346.85 479.86 329.6 479.86L329.6 467.06C344.48 467.06 352.75 467.06 354.4 467.06C354.61 467.06 354.79 466.99 354.99 466.95C356.57 470 357.68 473.32 358.14 476.78ZM298.11 467C298.21 467.01 298.3 467.06 298.4 467.06C300.05 467.06 308.32 467.06 323.2 467.06L323.2 479.86C305.98 479.86 296.41 479.86 294.5 479.86C294.75 475.28 295.95 470.89 298.1 467C298.1 467 298.11 467 298.11 467ZM323.2 486.26L323.2 499.06L294.4 499.06L294.4 486.26L323.2 486.26ZM358.4 486.26L358.4 499.06L329.6 499.06L329.6 486.26L358.4 486.26ZM323.2 505.46L323.2 518.26L294.4 518.26L294.4 505.46L323.2 505.46ZM358.4 505.46L358.4 518.26L329.6 518.26L329.6 505.46L358.4 505.46ZM323.2 524.66L323.2 537.46L294.4 537.46L294.4 524.66L323.2 524.66ZM358.4 524.66L358.4 537.46L329.6 537.46L329.6 524.66L358.4 524.66ZM323.2 543.86L323.2 556.66L294.4 556.66L294.4 543.86L323.2 543.86ZM358.4 543.86L358.4 556.66L329.6 556.66L329.6 543.86L358.4 543.86ZM323.2 563.06L323.2 575.86L294.4 575.86L294.4 563.06L323.2 563.06ZM358.4 563.06L358.4 575.86L329.6 575.86L329.6 563.06L358.4 563.06Z" id="b1JsqTHsIQ"></path></defs><g><g><g><use xlink:href="#b1JsqTHsIQ" opacity="1" fill="#2d2d86" fill-opacity="1"></use><g><use xlink:href="#b1JsqTHsIQ" opacity="1" fill-opacity="0" stroke="#000000" stroke-width="1" stroke-opacity="0"></use></g></g></g></g></svg>