<?xml version="1.0" encoding="UTF-8" standalone="no"?>
<!DOCTYPE svg PUBLIC "-//W3C//DTD SVG 1.1//EN" "http://www.w3.org/Graphics/SVG/1.1/DTD/svg11.dtd">
<svg version="1.1" xmlns="http://www.w3.org/2000/svg" xmlns:xlink="http://www.w3.org/1999/xlink" preserveAspectRatio="xMidYMid meet" viewBox="0 0 640 640" width="640" height="640"><defs><path d="M502.4 521.6L502.4 387.2C508.16 387.2 511.36 387.2 512 387.2C513.28 387.2 514.56 386.56 515.2 385.28C515.84 383.36 520.96 368 521.6 366.08C522.24 364.8 521.6 364.16 520.96 362.88C520.32 362.24 519.68 361.6 518.4 361.6C517.33 361.6 512 361.6 502.4 361.6L502.4 336C504.32 336 505.39 336 505.6 336C507.52 336 508.8 334.72 508.8 332.8C508.8 330.88 508.8 315.52 508.8 313.6C508.8 311.68 507.52 310.4 505.6 310.4C499.41 310.4 468.48 310.4 412.8 310.4C412.8 296.96 412.8 289.49 412.8 288C412.8 286.08 411.52 284.8 409.6 284.8C409.39 284.8 408.32 284.8 406.4 284.8L406.4 252.8L406.4 249.6C406.4 243.84 406.4 240.64 406.4 240C406.4 234.24 402.56 229.12 396.8 227.84C396.8 226.82 396.8 218.62 396.8 217.6C396.8 215.68 395.52 214.4 393.6 214.4C391.68 214.4 390.4 215.68 390.4 217.6C390.4 218.62 390.4 226.82 390.4 227.84C384.64 229.12 380.8 234.24 380.8 240C380.8 240.64 380.8 243.84 380.8 249.6L380.8 252.8L380.8 265.6L259.2 265.6L259.2 252.8L259.2 249.6C259.2 243.84 259.2 240.64 259.2 240C259.2 234.24 255.36 229.12 249.6 227.84C249.6 226.82 249.6 218.62 249.6 217.6C249.6 215.68 248.32 214.4 246.4 214.4C244.48 214.4 243.2 215.68 243.2 217.6C243.2 218.62 243.2 226.82 243.2 227.84C237.44 229.12 233.6 234.24 233.6 240C233.6 240.64 233.6 243.84 233.6 249.6L233.6 252.8L233.6 284.8C231.68 284.8 230.61 284.8 230.4 284.8C228.48 284.8 227.2 286.08 227.2 288C227.2 289.49 227.2 296.96 227.2 310.4C171.52 310.4 140.59 310.4 134.4 310.4C132.48 310.4 131.2 311.68 131.2 313.6C131.2 315.52 131.2 330.88 131.2 332.8C131.2 334.72 132.48 336 134.4 336C134.61 336 135.68 336 137.6 336L137.6 361.6C128 361.6 122.67 361.6 121.6 361.6C120.32 361.6 119.68 362.24 119.04 362.88C118.4 363.52 118.4 364.8 118.4 366.08C119.04 368 124.16 383.36 124.8 385.28C125.44 386.56 126.72 387.2 128 387.2C128.64 387.2 131.84 387.2 137.6 387.2L137.6 521.6C128 521.6 122.67 521.6 121.6 521.6C119.68 521.6 118.4 522.88 118.4 524.8C118.4 526.72 119.68 528 121.6 528C122.88 528 129.28 528 140.8 528L176 528L201.6 528L230.4 528L262.4 528L377.6 528L409.6 528L438.4 528L464 528L499.2 528C510.72 528 517.12 528 518.4 528C520.32 528 521.6 526.72 521.6 524.8C521.6 522.88 520.32 521.6 518.4 521.6C516.27 521.6 510.93 521.6 502.4 521.6ZM412.8 380.8L412.8 368L513.92 368L509.44 380.8L412.8 380.8ZM374.4 291.2L374.4 329.6L265.6 329.6L265.6 291.2L374.4 291.2ZM406.4 329.6L380.8 329.6L380.8 291.2L384 291.2L403.2 291.2L406.4 291.2L406.4 329.6ZM297.6 361.6L284.8 361.6L284.8 336L297.6 336L297.6 361.6ZM316.8 336L316.8 361.6L304 361.6L304 336L316.8 336ZM336 336L336 361.6L323.2 361.6L323.2 336L336 336ZM355.2 336L355.2 361.6L342.4 361.6L342.4 336L355.2 336ZM374.4 336L374.4 361.6L361.6 361.6L361.6 336L374.4 336ZM380.8 336L406.4 336L406.4 361.6L380.8 361.6L380.8 336ZM278.4 361.6L265.6 361.6L265.6 336L278.4 336L278.4 361.6ZM233.6 361.6L233.6 336L259.2 336L259.2 361.6L233.6 361.6ZM259.2 380.8L233.6 380.8L233.6 368L259.2 368L259.2 380.8ZM406.4 368L406.4 380.8L380.8 380.8L380.8 368L406.4 368ZM412.8 361.6L412.8 336L496 336L496 361.6L412.8 361.6ZM502.4 329.6L499.2 329.6L412.8 329.6L412.8 316.8L502.4 316.8L502.4 329.6ZM387.2 252.8L400 252.8L400 284.8L387.2 284.8L387.2 252.8ZM400 240C400 240.43 400 242.56 400 246.4L387.2 246.4C387.2 242.56 387.2 240.43 387.2 240C387.2 236.16 389.76 233.6 393.6 233.6C397.44 233.6 400 236.16 400 240ZM380.8 284.8L379.52 284.8L377.6 284.8L262.4 284.8L259.2 284.8L259.2 272L380.8 272L380.8 284.8ZM252.8 240C252.8 240.43 252.8 242.56 252.8 246.4L240 246.4C240 242.56 240 240.43 240 240C240 236.16 242.56 233.6 246.4 233.6C250.24 233.6 252.8 236.16 252.8 240ZM252.8 252.8L252.8 284.8L240 284.8L240 252.8L252.8 252.8ZM256 291.2L259.2 291.2L259.2 329.6L233.6 329.6C233.6 320 233.6 314.67 233.6 313.6C233.6 313.6 233.6 313.6 233.6 313.6C233.6 313.6 233.6 313.6 233.6 313.6C233.6 312.11 233.6 304.64 233.6 291.2L236.8 291.2L256 291.2ZM227.2 316.8L227.2 329.6L140.8 329.6L137.6 329.6L137.6 316.8L227.2 316.8ZM227.2 336L227.2 361.6L144 361.6L144 336L227.2 336ZM227.2 368L227.2 380.8L130.56 380.8L126.08 368L227.2 368ZM144 387.2L227.2 387.2L227.2 521.6L217.6 521.6C217.6 477.82 217.6 453.5 217.6 448.64C217.6 448.64 217.6 448.64 217.6 448.64C217.6 448.64 217.6 448.64 217.6 448.64C217.6 448.64 217.6 448.64 217.6 448.64C217.6 431.36 208 416 192 408.32C190.08 407.04 187.52 407.04 184.96 408.32C169.6 416 160 431.36 159.36 448.64C159.36 448.64 159.36 448.64 159.36 448.64C159.36 448.64 159.36 448.64 159.36 448.64C159.36 448.64 159.36 448.64 159.36 448.64C159.36 453.5 159.36 477.82 159.36 521.6L143.36 521.6L143.36 387.2L144 387.2ZM166.4 521.6L166.4 451.2L211.2 451.2L211.2 521.6L204.8 521.6C204.8 496.64 204.8 482.77 204.8 480C204.8 463.36 190.72 458.24 190.08 457.6C189.44 457.6 188.8 457.6 188.16 457.6C187.52 457.6 172.8 463.36 172.8 480C172.8 482.77 172.8 496.64 172.8 521.6L166.4 521.6ZM188.16 412.8C188.8 412.8 188.8 412.8 189.44 412.8C201.6 419.2 209.92 430.72 211.2 444.8C208.21 444.8 193.28 444.8 166.4 444.8C172.37 427.73 179.63 417.07 188.16 412.8ZM179.2 480C179.2 470.4 186.24 465.92 188.8 464C192 465.92 198.4 470.4 198.4 480C198.4 482.77 198.4 496.64 198.4 521.6L179.2 521.6C179.2 496.64 179.2 482.77 179.2 480ZM233.6 387.2L259.2 387.2L259.2 521.6L233.6 521.6L233.6 387.2ZM278.4 521.6C278.4 479.74 278.4 456.49 278.4 451.84C278.4 432.64 288 414.72 304.64 404.48C305.66 403.8 310.78 400.38 320 394.24C329.22 400 334.34 403.2 335.36 403.84C352 414.08 361.6 432 361.6 451.84C361.6 456.53 361.6 480 361.6 522.24L278.4 522.24L278.4 521.6ZM321.28 387.84C320 387.2 318.72 387.2 318.08 387.84C316.35 388.93 302.53 397.63 300.8 398.72C282.88 410.24 272 430.08 272 451.84C272 456.49 272 479.74 272 521.6L265.6 521.6L265.6 368L374.4 368L374.4 521.6L368 521.6C368 479.36 368 455.89 368 451.2C368 430.08 357.12 410.24 338.56 398.72C335.1 396.54 323.01 388.93 321.28 387.84ZM380.8 387.2L406.4 387.2L406.4 521.6L380.8 521.6L380.8 387.2ZM473.6 451.2L473.6 521.6L467.2 521.6C467.2 496.64 467.2 482.77 467.2 480C467.2 463.36 453.12 458.24 452.48 457.6C451.84 457.6 451.2 457.6 450.56 457.6C449.92 457.6 435.2 463.36 435.2 480C435.2 482.77 435.2 496.64 435.2 521.6L428.8 521.6L428.8 451.2L473.6 451.2ZM450.56 412.8C451.2 412.8 451.2 412.8 451.84 412.8C464 419.2 472.32 430.72 473.6 444.8C470.61 444.8 455.68 444.8 428.8 444.8C434.77 427.73 442.03 417.07 450.56 412.8ZM441.6 480C441.6 470.4 448.64 465.92 451.2 464C454.4 465.92 460.8 470.4 460.8 480C460.8 482.77 460.8 496.64 460.8 521.6L441.6 521.6C441.6 496.64 441.6 482.77 441.6 480ZM480 448.64C480 448.64 480 448.64 480 448.64C480 448.64 480 448.64 480 448.64C480 448.64 480 448.64 480 448.64C480 431.36 470.4 416 454.4 407.68C452.48 406.4 449.92 406.4 447.36 407.68C432 415.36 421.76 431.36 421.76 448.64C421.76 453.5 421.76 477.82 421.76 521.6L412.16 521.6L412.16 387.2L495.36 387.2L495.36 521.6L480 521.6C480 477.82 480 453.5 480 448.64Z" id="d4hnTbbA97"></path></defs><g><g><g><use xlink:href="#d4hnTbbA97" opacity="1" fill="#2d2d86" fill-opacity="1"></use><g><use xlink:href="#d4hnTbbA97" opacity="1" fill-opacity="0" stroke="#000000" stroke-width="1" stroke-opacity="0"></use></g></g></g></g></svg>