<?xml version="1.0" encoding="UTF-8" standalone="no"?>
<!DOCTYPE svg PUBLIC "-//W3C//DTD SVG 1.1//EN" "http://www.w3.org/Graphics/SVG/1.1/DTD/svg11.dtd">
<svg version="1.1" xmlns="http://www.w3.org/2000/svg" xmlns:xlink="http://www.w3.org/1999/xlink" preserveAspectRatio="xMidYMid meet" viewBox="0 0 640 640" width="640" height="640"><defs><path d="M148.48 412.8C146.56 412.8 145.28 414.08 145.28 416C145.28 418.56 145.28 439.04 145.28 441.6C145.28 443.52 146.56 444.8 148.48 444.8C150.4 444.8 165.76 444.8 167.68 444.8C169.6 444.8 170.88 443.52 170.88 441.6C170.88 439.04 170.88 418.56 170.88 416C170.88 414.08 169.6 412.8 167.68 412.8C163.84 412.8 150.4 412.8 148.48 412.8ZM164.48 425.6L151.68 425.6L151.68 419.2L164.48 419.2L164.48 425.6ZM151.68 432L164.48 432L164.48 438.4L151.68 438.4L151.68 432Z" id="c37rsxLQdK"></path><path d="M516.48 521.6L516.48 464C518.4 464 519.47 464 519.68 464C521.6 464 522.88 462.72 522.88 460.8C522.88 458.88 521.6 457.6 519.68 457.6C519.47 457.6 518.4 457.6 516.48 457.6L516.48 406.4C518.4 406.4 519.47 406.4 519.68 406.4C521.6 406.4 522.88 405.12 522.88 403.2C522.88 401.28 521.6 400 519.68 400C519.47 400 518.4 400 516.48 400L516.48 380.8C518.4 380.8 519.47 380.8 519.68 380.8C521.6 380.8 522.88 379.52 522.88 377.6C522.88 375.68 521.6 374.4 519.68 374.4C519.47 374.4 518.4 374.4 516.48 374.4L516.48 362.24L516.48 358.4C516.48 354.56 516.48 352.43 516.48 352C516.48 350.08 515.2 348.8 513.28 348.8C511.36 348.8 510.08 350.08 510.08 352C510.08 352.21 510.08 353.28 510.08 355.2L503.68 355.2L503.68 336C505.6 336 506.67 336 506.88 336C508.8 336 510.08 334.72 510.08 332.8C510.08 330.88 508.8 329.6 506.88 329.6C506.56 329.6 504 329.6 503.68 329.6C503.68 323.84 499.84 318.72 494.08 317.44C494.08 317.44 494.08 317.44 494.08 317.44C494.08 316.42 494.08 308.22 494.08 307.2C494.08 305.28 492.8 304 490.88 304C488.96 304 487.68 305.28 487.68 307.2C487.68 308.22 487.68 316.42 487.68 317.44C487.68 317.44 487.68 317.44 487.68 317.44C481.92 318.72 478.08 323.84 478.08 329.6C477.76 329.6 475.2 329.6 474.88 329.6C472.96 329.6 471.68 330.88 471.68 332.8C471.68 334.72 472.96 336 474.88 336C475.09 336 476.16 336 478.08 336L478.08 355.2L471.68 355.2C471.68 353.28 471.68 352.21 471.68 352C471.68 350.08 470.4 348.8 468.48 348.8C466.56 348.8 465.28 350.08 465.28 352C465.28 352.43 465.28 354.56 465.28 358.4L465.28 362.24L465.28 374.4C463.36 374.4 462.29 374.4 462.08 374.4C460.16 374.4 458.88 375.68 458.88 377.6C458.88 379.52 460.16 380.8 462.08 380.8C462.29 380.8 463.36 380.8 465.28 380.8L465.28 387.2L414.08 387.2L414.08 380.8C416 380.8 417.07 380.8 417.28 380.8C419.2 380.8 420.48 379.52 420.48 377.6C420.48 375.68 419.2 374.4 417.28 374.4C417.07 374.4 416 374.4 414.08 374.4L414.08 342.4C416 342.4 417.07 342.4 417.28 342.4C419.2 342.4 420.48 341.12 420.48 339.2C420.48 337.28 419.2 336 417.28 336C416.96 336 414.4 336 414.08 336C412.8 329.6 407.68 324.48 401.28 323.2C401.28 322.24 401.28 314.56 401.28 313.6C401.28 311.68 400 310.4 398.08 310.4C396.16 310.4 394.88 311.68 394.88 313.6C394.88 314.24 394.88 317.44 394.88 323.2C392.96 323.2 391.89 323.2 391.68 323.2C384 323.2 377.6 317.44 376.32 310.4C377.22 310.4 384.38 310.4 385.28 310.4C387.2 310.4 388.48 309.12 388.48 307.2C388.48 305.92 388.48 295.68 388.48 294.4C388.48 292.48 387.2 291.2 385.28 291.2C384.64 291.2 381.44 291.2 375.68 291.2L375.68 278.4C377.6 278.4 378.67 278.4 378.88 278.4C380.8 278.4 382.08 277.12 382.08 275.2C382.08 273.28 380.8 272 378.88 272C378.56 272 376 272 375.68 272C373.12 252.16 359.68 236.16 341.12 229.76C341.12 228.31 341.12 221.06 341.12 208C343.04 208 344.11 208 344.32 208C346.24 208 347.52 206.72 347.52 204.8C347.52 202.88 346.24 201.6 344.32 201.6C344 201.6 341.44 201.6 341.12 201.6C339.84 195.2 334.72 190.08 328.32 188.8C328.32 186.56 328.32 168.64 328.32 166.4C328.32 164.48 327.04 163.2 325.12 163.2C323.2 163.2 321.92 164.48 321.92 166.4C321.92 168.64 321.92 186.56 321.92 188.8C315.52 190.08 310.4 195.2 309.12 201.6C308.8 201.6 306.24 201.6 305.92 201.6C304 201.6 302.72 202.88 302.72 204.8C302.72 206.72 304 208 305.92 208C306.13 208 307.2 208 309.12 208C309.12 221.06 309.12 228.31 309.12 229.76C290.56 236.16 277.12 252.16 274.56 272C274.18 272 271.1 272 270.72 272C268.8 272 267.52 273.28 267.52 275.2C267.52 277.12 268.8 278.4 270.72 278.4C270.93 278.4 272 278.4 273.92 278.4L273.92 291.2C268.16 291.2 264.96 291.2 264.32 291.2C262.4 291.2 261.12 292.48 261.12 294.4C261.12 295.68 261.12 305.92 261.12 307.2C261.12 309.12 262.4 310.4 264.32 310.4C265.22 310.4 272.38 310.4 273.28 310.4C272 317.44 265.6 323.2 257.92 323.2C257.71 323.2 256.64 323.2 254.72 323.2C254.72 317.44 254.72 314.24 254.72 313.6C254.72 311.68 253.44 310.4 251.52 310.4C249.6 310.4 248.32 311.68 248.32 313.6C248.32 314.56 248.32 322.24 248.32 323.2C241.92 324.48 236.8 329.6 235.52 336C235.2 336 232.64 336 232.32 336C230.4 336 229.12 337.28 229.12 339.2C229.12 341.12 230.4 342.4 232.32 342.4C232.53 342.4 233.6 342.4 235.52 342.4L235.52 374.4C233.6 374.4 232.53 374.4 232.32 374.4C230.4 374.4 229.12 375.68 229.12 377.6C229.12 379.52 230.4 380.8 232.32 380.8C232.53 380.8 233.6 380.8 235.52 380.8L235.52 387.2L184.32 387.2L184.32 380.8C186.24 380.8 187.31 380.8 187.52 380.8C189.44 380.8 190.72 379.52 190.72 377.6C190.72 375.68 189.44 374.4 187.52 374.4C187.31 374.4 186.24 374.4 184.32 374.4L184.32 362.24L184.32 358.4C184.32 354.56 184.32 352.43 184.32 352C184.32 350.08 183.04 348.8 181.12 348.8C179.2 348.8 177.92 350.08 177.92 352C177.92 352.21 177.92 353.28 177.92 355.2L171.52 355.2L171.52 336C173.44 336 174.51 336 174.72 336C176.64 336 177.92 334.72 177.92 332.8C177.92 330.88 176.64 329.6 174.72 329.6C174.4 329.6 171.84 329.6 171.52 329.6C171.52 323.84 167.68 318.72 161.92 317.44C161.92 317.44 161.92 317.44 161.92 317.44C161.92 316.42 161.92 308.22 161.92 307.2C161.92 305.28 160.64 304 158.72 304C156.8 304 155.52 305.28 155.52 307.2C155.52 308.22 155.52 316.42 155.52 317.44C155.52 317.44 155.52 317.44 155.52 317.44C149.76 318.72 145.92 323.84 145.92 329.6C145.6 329.6 143.04 329.6 142.72 329.6C140.8 329.6 139.52 330.88 139.52 332.8C139.52 334.72 140.8 336 142.72 336C142.93 336 144 336 145.92 336L145.92 355.2L139.52 355.2C139.52 353.28 139.52 352.21 139.52 352C139.52 350.08 138.24 348.8 136.32 348.8C134.4 348.8 133.12 350.08 133.12 352C133.12 352.43 133.12 354.56 133.12 358.4L133.12 362.24L133.12 374.4C131.2 374.4 130.13 374.4 129.92 374.4C128 374.4 126.72 375.68 126.72 377.6C126.72 379.52 128 380.8 129.92 380.8C130.13 380.8 131.2 380.8 133.12 380.8L133.12 400C131.2 400 130.13 400 129.92 400C128 400 126.72 401.28 126.72 403.2C126.72 405.12 128 406.4 129.92 406.4C130.13 406.4 131.2 406.4 133.12 406.4L133.12 457.6C131.2 457.6 130.13 457.6 129.92 457.6C128 457.6 126.72 458.88 126.72 460.8C126.72 462.72 128 464 129.92 464C130.13 464 131.2 464 133.12 464L133.12 521.6C127.36 521.6 124.16 521.6 123.52 521.6C121.6 521.6 120.32 522.88 120.32 524.8C120.32 526.72 121.6 528 123.52 528C124.37 528 128.64 528 136.32 528L181.12 528L238.72 528L257.92 528L277.12 528L296.32 528L353.92 528L373.12 528L392.32 528L411.52 528L469.12 528L513.92 528C521.6 528 525.87 528 526.72 528C528.64 528 529.92 526.72 529.92 524.8C529.92 522.88 528 521.6 526.08 521.6C524.8 521.6 521.6 521.6 516.48 521.6ZM471.68 457.6L471.68 416L471.68 406.4L510.08 406.4L510.08 457.6L471.68 457.6ZM497.28 329.6C496 329.6 485.76 329.6 484.48 329.6C484.48 325.76 487.68 323.2 490.88 323.2C494.72 323.2 497.28 325.76 497.28 329.6ZM497.28 336L497.28 355.2L484.48 355.2L484.48 336L497.28 336ZM471.68 362.24L471.68 362.24C477.44 361.86 480.64 361.64 481.28 361.6C481.28 361.6 481.28 361.6 481.28 361.6C483.2 361.6 498.56 361.6 500.48 361.6C500.48 361.6 500.48 361.6 500.48 361.6C501.08 361.6 504.06 361.6 509.44 361.6L509.44 362.24L509.44 374.4L471.04 374.4L471.04 362.24L471.68 362.24ZM510.08 400L471.68 400L471.68 390.4L471.68 380.8L510.08 380.8L510.08 400ZM465.28 400C463.36 400 462.29 400 462.08 400C460.16 400 458.88 401.28 458.88 403.2C458.88 405.12 460.16 406.4 462.08 406.4C462.29 406.4 463.36 406.4 465.28 406.4L465.28 412.8L414.08 412.8L414.08 406.4C416 406.4 417.07 406.4 417.28 406.4C419.2 406.4 420.48 405.12 420.48 403.2C420.48 401.28 419.2 400 417.28 400C417.07 400 416 400 414.08 400L414.08 393.6L465.28 393.6L465.28 400ZM298.88 444.8C298.88 430.72 310.4 419.2 324.48 419.2C338.56 419.2 350.08 430.72 350.08 444.8C350.08 448.64 350.08 467.84 350.08 502.4L350.08 521.6L298.88 521.6L298.88 502.4C298.88 467.84 298.88 448.64 298.88 444.8ZM298.88 425.6C298.88 424.32 298.88 417.92 298.88 406.4L308.48 406.4L340.48 406.4L350.08 406.4C350.08 417.92 350.08 424.32 350.08 425.6C344.32 417.92 335.36 412.8 324.48 412.8C314.24 412.8 304.64 417.92 298.88 425.6ZM308.48 400L298.88 400L298.88 387.2L350.08 387.2L350.08 400L340.48 400L308.48 400ZM292.48 355.2L292.48 368L279.68 368L279.68 355.2L292.48 355.2ZM340.48 355.2L350.08 355.2L350.08 368L298.88 368L298.88 355.2L308.48 355.2L340.48 355.2ZM298.88 310.4L298.88 336L292.48 336L292.48 310.4L298.88 310.4ZM343.68 310.4L343.68 336L340.48 336L337.28 336C337.28 331.78 337.28 329.43 337.28 328.96C337.28 321.92 331.52 316.16 324.48 316.16C317.44 316.16 311.68 321.92 311.68 328.96C311.68 329.43 311.68 331.78 311.68 336L308.48 336L305.28 336L305.28 310.4L343.68 310.4ZM350.08 336L350.08 310.4L356.48 310.4L356.48 336L350.08 336ZM318.08 336C318.08 331.78 318.08 329.43 318.08 328.96C318.08 325.12 320.64 322.56 324.48 322.56C328.32 322.56 330.88 325.12 330.88 328.96C330.88 329.43 330.88 331.78 330.88 336L318.08 336ZM337.28 342.4L337.28 348.8L311.68 348.8L311.68 342.4L337.28 342.4ZM356.48 368L356.48 355.2L369.28 355.2L369.28 368L356.48 368ZM295.68 374.4L353.28 374.4L372.48 374.4L382.08 374.4C382.08 376.32 382.08 377.39 382.08 377.6C382.08 377.6 382.08 377.6 382.08 378.24C382.08 378.41 382.08 379.26 382.08 380.8L372.48 380.8L353.28 380.8L295.68 380.8L276.48 380.8L266.88 380.8L266.88 377.6L266.88 377.6L266.88 374.4L276.48 374.4L295.68 374.4ZM241.28 380.8L260.48 380.8C260.48 382.72 260.48 383.79 260.48 384C260.48 385.92 261.76 387.2 263.68 387.2C264.32 387.2 267.52 387.2 273.28 387.2L273.28 400L257.28 400L241.28 400L241.28 390.4L241.28 380.8ZM273.28 421.12C271.36 419.84 269.44 419.2 266.88 419.2C264.32 419.2 262.4 419.84 260.48 421.12C260.48 420.14 260.48 415.23 260.48 406.4L273.28 406.4C273.28 415.23 273.28 420.14 273.28 421.12ZM260.48 489.6C260.48 481.92 260.48 477.65 260.48 476.8C260.48 472.96 263.04 470.4 266.88 470.4C270.72 470.4 273.28 472.96 273.28 476.8C273.28 477.65 273.28 481.92 273.28 489.6L260.48 489.6ZM260.48 465.92C260.48 464.94 260.48 460.03 260.48 451.2L273.28 451.2C273.28 460.03 273.28 464.94 273.28 465.92C271.36 464.64 269.44 464 266.88 464C264.32 464 262.4 464.64 260.48 465.92ZM260.48 444.8C260.48 437.12 260.48 432.85 260.48 432C260.48 428.16 263.04 425.6 266.88 425.6C270.72 425.6 273.28 428.16 273.28 432C273.28 432.85 273.28 437.12 273.28 444.8L260.48 444.8ZM273.28 496L273.28 521.6L260.48 521.6L260.48 496L273.28 496ZM292.48 387.2L292.48 400L279.68 400L279.68 387.2L292.48 387.2ZM369.28 387.2L369.28 400L356.48 400L356.48 387.2L369.28 387.2ZM375.68 489.6C375.68 481.92 375.68 477.65 375.68 476.8C375.68 472.96 378.24 470.4 382.08 470.4C385.92 470.4 388.48 472.96 388.48 476.8C388.48 477.65 388.48 481.92 388.48 489.6L375.68 489.6ZM375.68 465.92C375.68 464.94 375.68 460.03 375.68 451.2L388.48 451.2C388.48 460.03 388.48 464.94 388.48 465.92C386.56 464.64 384.64 464 382.08 464C379.52 464 377.6 464.64 375.68 465.92ZM375.68 444.8C375.68 437.12 375.68 432.85 375.68 432C375.68 428.16 378.24 425.6 382.08 425.6C385.92 425.6 388.48 428.16 388.48 432C388.48 432.85 388.48 437.12 388.48 444.8L375.68 444.8ZM388.48 496L388.48 521.6L375.68 521.6L375.68 496L388.48 496ZM382.08 419.2C379.52 419.2 377.6 419.84 375.68 421.12C375.68 420.14 375.68 415.23 375.68 406.4L388.48 406.4L388.48 421.12C385.92 419.84 383.79 419.2 382.08 419.2ZM375.68 387.2C381.44 387.2 384.64 387.2 385.28 387.2C387.2 387.2 388.48 385.92 388.48 384C388.48 383.79 388.48 382.72 388.48 380.8L407.68 380.8L407.68 390.4L407.68 400L391.68 400L375.68 400L375.68 387.2ZM401.28 374.4C401.28 374.4 401.28 374.4 401.28 373.76C401.28 372.22 401.28 359.94 401.28 358.4C401.28 356.48 400 355.2 398.08 355.2C396.16 355.2 394.88 356.48 394.88 358.4C394.88 359.94 394.88 372.22 394.88 373.76C394.88 373.76 394.88 373.76 394.88 374.4C394.45 374.4 392.32 374.4 388.48 374.4C388.48 372.48 388.48 371.41 388.48 371.2C388.48 371.2 388.48 371.2 388.48 370.56C388.48 368.68 388.48 359.3 388.48 342.4L407.68 342.4L407.68 374.4C403.84 374.4 401.71 374.4 401.28 374.4ZM389.12 336C390.4 332.16 394.24 329.6 398.08 329.6C401.92 329.6 405.76 332.16 407.04 336C403.46 336 390.91 336 389.12 336ZM382.08 336C381.76 336 379.2 336 378.88 336C376.96 336 375.68 337.28 375.68 339.2C375.68 341.12 376.96 342.4 378.88 342.4C379.09 342.4 380.16 342.4 382.08 342.4L382.08 368L375.68 368C375.68 358.4 375.68 353.07 375.68 352C375.68 350.08 374.4 348.8 372.48 348.8C371.2 348.8 364.8 348.8 353.28 348.8L343.68 348.8L343.68 342.4C357.12 342.4 364.59 342.4 366.08 342.4C368 342.4 369.28 341.12 369.28 339.2C369.28 337.28 368 336 366.08 336C365.87 336 364.8 336 362.88 336L362.88 310.4C367.1 310.4 369.45 310.4 369.92 310.4C371.2 319.36 377.6 326.4 385.92 328.96C384 330.88 382.72 333.44 382.08 336ZM362.88 291.2L362.88 278.4L369.28 278.4L369.28 291.2L362.88 291.2ZM305.28 278.4L305.28 291.2L292.48 291.2L292.48 278.4L305.28 278.4ZM337.28 278.4L337.28 291.2L311.68 291.2L311.68 278.4L337.28 278.4ZM356.48 278.4L356.48 291.2L343.68 291.2L343.68 278.4L356.48 278.4ZM333.44 201.6C331.65 201.6 317.31 201.6 315.52 201.6C316.8 197.76 320 195.2 324.48 195.2C328.96 195.2 332.16 197.76 333.44 201.6ZM334.08 208C334.08 219.9 334.08 226.52 334.08 227.84C332.16 227.2 329.6 227.2 327.68 227.2C327.68 227.2 327.68 226.56 327.68 226.56C327.68 225.66 327.68 218.5 327.68 217.6C327.68 215.68 326.4 214.4 324.48 214.4C322.56 214.4 321.28 215.68 321.28 217.6C321.28 218.5 321.28 225.66 321.28 226.56C321.28 226.56 321.28 227.2 321.28 227.2C319.36 227.2 316.8 227.84 314.88 227.84C314.88 226.52 314.88 219.9 314.88 208L334.08 208ZM368.64 272C359.81 272 289.15 272 280.32 272C283.52 250.24 302.08 233.6 324.48 233.6C346.88 233.6 365.44 250.24 368.64 272ZM286.08 278.4L286.08 291.2L279.68 291.2L279.68 278.4L286.08 278.4ZM382.08 297.6L382.08 304L266.88 304L266.88 297.6L382.08 297.6ZM286.72 310.4L286.72 336C284.8 336 283.73 336 283.52 336C281.6 336 280.32 337.28 280.32 339.2C280.32 341.12 281.6 342.4 283.52 342.4C285.01 342.4 292.48 342.4 305.92 342.4L305.92 348.8L296.32 348.8C284.8 348.8 278.4 348.8 277.12 348.8C275.2 348.8 273.92 350.08 273.92 352C273.92 353.07 273.92 358.4 273.92 368L267.52 368L267.52 342.4C269.44 342.4 270.51 342.4 270.72 342.4C272.64 342.4 273.92 341.12 273.92 339.2C273.92 337.28 272.64 336 270.72 336C270.4 336 267.84 336 267.52 336C266.88 333.44 265.6 330.88 263.68 328.96C271.36 326.4 278.4 319.36 279.68 310.4C280.62 310.4 282.97 310.4 286.72 310.4ZM259.84 336C258.05 336 243.71 336 241.92 336C243.2 332.16 247.04 329.6 250.88 329.6C255.36 329.6 258.56 332.16 259.84 336ZM260.48 371.2L260.48 374.4C256.64 374.4 254.51 374.4 254.08 374.4C254.08 374.4 254.08 374.4 254.08 373.76C254.08 372.22 254.08 359.94 254.08 358.4C254.08 356.48 252.8 355.2 250.88 355.2C248.96 355.2 247.68 356.48 247.68 358.4C247.68 359.94 247.68 372.22 247.68 373.76C247.68 373.76 247.68 373.76 247.68 374.4C247.25 374.4 245.12 374.4 241.28 374.4L241.28 342.4L260.48 342.4L260.48 371.2ZM234.88 400C232.96 400 231.89 400 231.68 400C229.76 400 228.48 401.28 228.48 403.2C228.48 405.12 229.76 406.4 231.68 406.4C231.89 406.4 232.96 406.4 234.88 406.4L234.88 412.8L183.68 412.8L183.68 406.4C185.6 406.4 186.67 406.4 186.88 406.4C188.8 406.4 190.08 405.12 190.08 403.2C190.08 401.28 188.8 400 186.88 400C186.67 400 185.6 400 183.68 400L183.68 393.6L234.88 393.6L234.88 400ZM164.48 329.6C163.2 329.6 152.96 329.6 151.68 329.6C151.68 325.76 154.24 323.2 158.08 323.2C161.92 323.2 164.48 325.76 164.48 329.6ZM164.48 336L164.48 355.2L151.68 355.2L151.68 336L164.48 336ZM138.88 362.24L138.88 362.24C144.26 361.86 147.24 361.64 147.84 361.6C147.84 361.6 147.84 361.6 147.84 361.6C149.76 361.6 165.12 361.6 167.04 361.6C167.04 361.6 167.04 361.6 167.04 361.6C167.68 361.6 170.88 361.6 176.64 361.6L176.64 362.24L176.64 374.4L138.24 374.4L138.24 362.24L138.88 362.24ZM177.28 380.8L177.28 390.4L177.28 400L138.88 400L138.88 380.8L177.28 380.8ZM177.28 406.4L177.28 416L177.28 457.6L138.88 457.6L138.88 406.4L177.28 406.4ZM177.28 464L177.28 521.6L138.88 521.6L138.88 464L177.28 464ZM186.88 464C188.8 464 190.08 462.72 190.08 460.8C190.08 458.88 188.8 457.6 186.88 457.6C186.67 457.6 185.6 457.6 183.68 457.6L183.68 419.2L234.88 419.2L234.88 521.6L183.68 521.6L183.68 464C185.6 464 186.67 464 186.88 464ZM241.28 416L241.28 406.4L254.08 406.4L254.08 432L254.08 448L254.08 476.8L254.08 492.8L254.08 521.6L241.28 521.6L241.28 416ZM279.68 492.8L279.68 476.8L279.68 448L279.68 432L279.68 406.4L292.48 406.4L292.48 444.8L292.48 502.4L292.48 521.6L279.68 521.6L279.68 492.8ZM356.48 502.4L356.48 444.8L356.48 406.4L369.28 406.4L369.28 432L369.28 448L369.28 476.8L369.28 492.8L369.28 521.6L356.48 521.6L356.48 502.4ZM394.88 476.8L394.88 448L394.88 432L394.88 406.4L407.68 406.4L407.68 416L407.68 521.6L394.88 521.6L394.88 492.8L394.88 476.8ZM465.28 419.2L465.28 457.6C463.36 457.6 462.29 457.6 462.08 457.6C460.16 457.6 458.88 458.88 458.88 460.8C458.88 462.72 460.16 464 462.08 464C462.29 464 463.36 464 465.28 464L465.28 521.6L414.08 521.6L414.08 419.2L465.28 419.2ZM471.68 464L510.08 464L510.08 521.6L471.68 521.6L471.68 464Z" id="a2QFNn07L2"></path><path d="M199.68 470.4C197.76 470.4 196.48 471.68 196.48 473.6C196.48 476.16 196.48 496.64 196.48 499.2C196.48 501.12 197.76 502.4 199.68 502.4C201.6 502.4 216.96 502.4 218.88 502.4C220.8 502.4 222.08 501.12 222.08 499.2C222.08 496.64 222.08 476.16 222.08 473.6C222.08 471.68 220.8 470.4 218.88 470.4C215.04 470.4 201.6 470.4 199.68 470.4ZM215.68 483.2L202.88 483.2L202.88 476.8L215.68 476.8L215.68 483.2ZM202.88 496L202.88 489.6L215.68 489.6L215.68 496L202.88 496ZM199.68 425.6C197.76 425.6 196.48 426.88 196.48 428.8C196.48 431.36 196.48 451.84 196.48 454.4C196.48 456.32 197.76 457.6 199.68 457.6C201.6 457.6 216.96 457.6 218.88 457.6C220.8 457.6 222.08 456.32 222.08 454.4C222.08 451.84 222.08 431.36 222.08 428.8C222.08 426.88 220.8 425.6 218.88 425.6C215.04 425.6 201.6 425.6 199.68 425.6ZM215.68 438.4L202.88 438.4L202.88 432L215.68 432L215.68 438.4ZM202.88 451.2L202.88 444.8L215.68 444.8L215.68 451.2L202.88 451.2ZM148.48 470.4C146.56 470.4 145.28 471.68 145.28 473.6C145.28 476.16 145.28 496.64 145.28 499.2C145.28 501.12 146.56 502.4 148.48 502.4C150.4 502.4 165.76 502.4 167.68 502.4C169.6 502.4 170.88 501.12 170.88 499.2C170.88 496.64 170.88 476.16 170.88 473.6C170.88 471.68 169.6 470.4 167.68 470.4C163.84 470.4 150.4 470.4 148.48 470.4ZM151.68 496L151.68 476.8L164.48 476.8L164.48 496L151.68 496Z" id="a6gCru9RTC"></path><path d="M324.48 281.6C322.71 281.6 321.28 283.03 321.28 284.8C321.28 286.57 322.71 288 324.48 288C326.25 288 327.68 286.57 327.68 284.8C327.68 283.03 326.25 281.6 324.48 281.6Z" id="a1MO8RKl6A"></path><path d="M158.08 387.2C156.31 387.2 154.88 388.63 154.88 390.4C154.88 392.17 156.31 393.6 158.08 393.6C159.85 393.6 161.28 392.17 161.28 390.4C161.28 388.63 159.85 387.2 158.08 387.2Z" id="a1BI7Ck80X"></path><path d="M500.48 444.8C502.4 444.8 503.68 443.52 503.68 441.6C503.68 439.04 503.68 418.56 503.68 416C503.68 414.08 502.4 412.8 500.48 412.8C498.56 412.8 483.2 412.8 481.28 412.8C479.36 412.8 478.08 414.08 478.08 416C478.08 418.56 478.08 439.04 478.08 441.6C478.08 443.52 479.36 444.8 481.28 444.8C485.12 444.8 498.56 444.8 500.48 444.8ZM484.48 432L497.28 432L497.28 438.4L484.48 438.4L484.48 432ZM497.28 425.6L484.48 425.6L484.48 419.2L497.28 419.2L497.28 425.6ZM430.08 470.4C428.16 470.4 426.88 471.68 426.88 473.6C426.88 476.16 426.88 496.64 426.88 499.2C426.88 501.12 428.16 502.4 430.08 502.4C432 502.4 447.36 502.4 449.28 502.4C451.2 502.4 452.48 501.12 452.48 499.2C452.48 496.64 452.48 476.16 452.48 473.6C452.48 471.68 451.2 470.4 449.28 470.4C445.44 470.4 432 470.4 430.08 470.4ZM446.08 476.8L446.08 483.2L433.28 483.2L433.28 476.8L446.08 476.8ZM433.28 489.6L446.08 489.6L446.08 496L433.28 496L433.28 489.6ZM430.08 425.6C428.16 425.6 426.88 426.88 426.88 428.8C426.88 431.36 426.88 451.84 426.88 454.4C426.88 456.32 428.16 457.6 430.08 457.6C432 457.6 447.36 457.6 449.28 457.6C451.2 457.6 452.48 456.32 452.48 454.4C452.48 451.84 452.48 431.36 452.48 428.8C452.48 426.88 451.2 425.6 449.28 425.6C445.44 425.6 432 425.6 430.08 425.6ZM446.08 432L446.08 438.4L433.28 438.4L433.28 432L446.08 432ZM433.28 444.8L446.08 444.8L446.08 451.2L433.28 451.2L433.28 444.8ZM481.28 470.4C479.36 470.4 478.08 471.68 478.08 473.6C478.08 476.16 478.08 496.64 478.08 499.2C478.08 501.12 479.36 502.4 481.28 502.4C483.2 502.4 498.56 502.4 500.48 502.4C502.4 502.4 503.68 501.12 503.68 499.2C503.68 496.64 503.68 476.16 503.68 473.6C503.68 471.68 502.4 470.4 500.48 470.4C496.64 470.4 483.2 470.4 481.28 470.4ZM484.48 496L484.48 476.8L497.28 476.8L497.28 496L484.48 496Z" id="f6XsZYdJ"></path><path d="M490.88 387.2C489.11 387.2 487.68 388.63 487.68 390.4C487.68 392.17 489.11 393.6 490.88 393.6C492.65 393.6 494.08 392.17 494.08 390.4C494.08 388.63 492.65 387.2 490.88 387.2Z" id="ai8KL1gY"></path></defs><g><g><g><use xlink:href="#c37rsxLQdK" opacity="1" fill="#2d2d86" fill-opacity="1"></use><g><use xlink:href="#c37rsxLQdK" opacity="1" fill-opacity="0" stroke="#000000" stroke-width="1" stroke-opacity="0"></use></g></g><g><use xlink:href="#a2QFNn07L2" opacity="1" fill="#2d2d86" fill-opacity="1"></use><g><use xlink:href="#a2QFNn07L2" opacity="1" fill-opacity="0" stroke="#000000" stroke-width="1" stroke-opacity="0"></use></g></g><g><use xlink:href="#a6gCru9RTC" opacity="1" fill="#2d2d86" fill-opacity="1"></use><g><use xlink:href="#a6gCru9RTC" opacity="1" fill-opacity="0" stroke="#000000" stroke-width="1" stroke-opacity="0"></use></g></g><g><use xlink:href="#a1MO8RKl6A" opacity="1" fill="#2d2d86" fill-opacity="1"></use><g><use xlink:href="#a1MO8RKl6A" opacity="1" fill-opacity="0" stroke="#000000" stroke-width="1" stroke-opacity="0"></use></g></g><g><use xlink:href="#a1BI7Ck80X" opacity="1" fill="#2d2d86" fill-opacity="1"></use><g><use xlink:href="#a1BI7Ck80X" opacity="1" fill-opacity="0" stroke="#000000" stroke-width="1" stroke-opacity="0"></use></g></g><g><use xlink:href="#f6XsZYdJ" opacity="1" fill="#2d2d86" fill-opacity="1"></use><g><use xlink:href="#f6XsZYdJ" opacity="1" fill-opacity="0" stroke="#000000" stroke-width="1" stroke-opacity="0"></use></g></g><g><use xlink:href="#ai8KL1gY" opacity="1" fill="#2d2d86" fill-opacity="1"></use><g><use xlink:href="#ai8KL1gY" opacity="1" fill-opacity="0" stroke="#000000" stroke-width="1" stroke-opacity="0"></use></g></g></g></g></svg>