<?xml version="1.0" encoding="iso-8859-1"?>
<!-- Generator: Adobe Illustrator 19.0.0, SVG Export Plug-In . SVG Version: 6.00 Build 0)  -->
<svg version="1.1" id="Layer_1" xmlns="http://www.w3.org/2000/svg" xmlns:xlink="http://www.w3.org/1999/xlink" x="0px" y="0px"
	 viewBox="0 0 512 512" style="enable-background:new 0 0 512 512;" xml:space="preserve">
<g>
	<g>
		<path d="M512,194.821c0-5.633-4.567-10.199-10.199-10.199c-5.632,0-10.199,4.566-10.199,10.199
			c0,8.703-5.877,16.043-13.866,18.305c-10.877-23.198-28.59-44.396-52.378-62.174c-31.407-23.474-70.652-38.861-113.227-44.789
			c9.758-9.951,15.789-23.568,15.789-38.573c0-30.402-24.734-55.136-55.137-55.136c-30.403,0-55.137,24.734-55.137,55.136
			c0,15.036,6.056,28.678,15.849,38.635c-22.029,3.206-43.464,9.115-63.455,17.564c-22.705-19.645-55.113-24.538-82.853-11.918
			c-2.984,1.357-5.133,4.067-5.777,7.282s0.298,6.543,2.529,8.945l28.458,30.624c-16.385,13.792-29.927,29.632-39.712,46.474H21.789
			C9.775,205.195,0,214.97,0,226.984v59.933c0,9.565,6.131,17.919,15.256,20.786l45.732,14.373
			c12.855,36.832,42.737,55.82,62.815,68.576c0.783,0.497,1.553,0.986,2.313,1.47l13.94,98.653
			c0.711,5.031,5.017,8.772,10.098,8.772h48.185c5.081,0,9.387-3.74,10.098-8.772l8.693-61.522
			c17.933,3.536,36.422,5.325,55.11,5.325c19.825,0,39.373-2.001,58.27-5.956l8.783,62.153c0.711,5.032,5.017,8.772,10.098,8.772
			h48.185c5.081,0,9.387-3.74,10.098-8.772l14.313-101.282c43.504-31.169,68.354-74.862,68.354-120.5
			c0-12.536-1.81-24.846-5.331-36.763C500.674,227.007,512,212.216,512,194.821z M272.784,32.851
			c19.154,0,34.738,15.583,34.738,34.737s-15.583,34.739-34.738,34.739s-34.738-15.583-34.738-34.739
			C238.045,48.433,253.63,32.851,272.784,32.851z M406.755,375.259c-2.365,1.617-3.942,4.155-4.343,6.993l-13.693,96.898h-30.466
			l-9.1-64.396c-0.405-2.868-2.01-5.428-4.415-7.042c-2.404-1.615-5.383-2.13-8.189-1.418c-20.643,5.232-42.28,7.886-64.307,7.886
			c-20.912,0-41.533-2.406-61.289-7.152c-2.794-0.672-5.742-0.133-8.119,1.484c-2.376,1.617-3.961,4.16-4.362,7.006l-8.992,63.632
			h-30.466l-13.355-94.503c-0.411-2.913-2.061-5.505-4.524-7.114c-2.025-1.321-4.165-2.681-6.394-4.098
			c-20.621-13.101-46.284-29.405-55.859-62.35c-0.953-3.277-3.48-5.86-6.736-6.884l-50.776-15.958
			c-0.581-0.183-0.973-0.716-0.973-1.326v-59.933c0-0.767,0.623-1.391,1.39-1.391h56.907c3.787,0,7.262-2.098,9.026-5.449
			c10.101-19.196,25.929-37.228,45.771-52.148c2.31-1.737,3.774-4.371,4.03-7.249c0.256-2.877-0.721-5.729-2.688-7.845
			l-24.921-26.818c18.32-3.042,37.412,2.983,50.661,16.823c3.001,3.134,7.659,4.028,11.605,2.223
			c30.534-13.947,65.135-21.32,100.061-21.32c109.014,0,197.703,65.13,197.703,145.187
			C469.946,309.076,446.914,347.808,406.755,375.259z"/>
	</g>
</g>
<g>
	<g>
		<path d="M126.061,195.449c-5.632,0-10.199,4.566-10.199,10.199v11.911c0,5.633,4.567,10.199,10.199,10.199
			c5.632,0,10.199-4.566,10.199-10.199v-11.911C136.26,200.016,131.693,195.449,126.061,195.449z"/>
	</g>
</g>
<g>
	<g>
		<path d="M311.225,139.143h-6.497c-5.632,0-10.199,4.566-10.199,10.199c0,5.633,4.567,10.199,10.199,10.199h6.497
			c5.632,0,10.199-4.566,10.199-10.199C321.424,143.709,316.857,139.143,311.225,139.143z"/>
	</g>
</g>
<g>
	<g>
		<path d="M263.58,139.143h-34.651c-5.632,0-10.199,4.566-10.199,10.199c0,5.633,4.567,10.199,10.199,10.199h34.651
			c5.632,0,10.199-4.566,10.199-10.199C273.779,143.709,269.212,139.143,263.58,139.143z"/>
	</g>
</g>
<g>
</g>
<g>
</g>
<g>
</g>
<g>
</g>
<g>
</g>
<g>
</g>
<g>
</g>
<g>
</g>
<g>
</g>
<g>
</g>
<g>
</g>
<g>
</g>
<g>
</g>
<g>
</g>
<g>
</g>
</svg>
