<svg xmlns="http://www.w3.org/2000/svg" id="Layer_1" enable-background="new 0 0 100 100" viewBox="0 0 100 100"><g id="g17" transform="translate(0 6)"><g id="g19"><rect id="rect21" width="5" height="39" x="33.5" y="45.479" fill="#bd866e"/></g><g id="g23"><rect id="rect25" width="5" height="39" x="62.5" y="45.479" fill="#f2b894"/></g><g id="g27"><rect id="rect29" width="5" height="37" x="62.5" y="47.479" fill="#bd866e"/></g><g id="g31"><polyline id="polyline33" fill="#9e919c" points="67.719 22.354 73.5 22.354 70.5 16.354 68 16.354"/></g><g id="g35"><rect id="rect37" width="24" height="39" x="38.5" y="45.479" fill="#f2b894"/></g><g id="g39"><path id="path41" fill="#bd866e" d="m 59.5,84.479 -17,0 0,-15.231 c 0,-2.749 1.411,-5.305 3.738,-6.77 L 51,59.479 l 4.556,2.68 C 58,63.597 59.5,66.22 59.5,69.055 l 0,15.424 z"/></g><g id="g43"><path id="path45" fill="#8d7e8a" d="m 56.5,84.479 -11,0 0,-15.246 c 0,-1.779 0.913,-3.433 2.418,-4.381 l 3.082,-1.94 2.948,1.734 c 1.581,0.93 2.552,2.627 2.552,4.462 l 0,15.371 z"/><path id="path47" fill="#594454" d="m 57,84.979 -12,0 0,-15.747 c 0,-1.962 0.991,-3.758 2.651,-4.803 l 3.34,-2.103 3.211,1.889 C 55.928,65.23 57,67.105 57,69.108 l 0,15.871 z m -11,-1 10,0 0,-14.871 c 0,-1.65 -0.883,-3.194 -2.306,-4.031 l -2.686,-1.58 -2.824,1.778 C 46.816,66.136 46,67.616 46,69.232 l 0,14.747 z"/></g><g id="g49"><path id="path51" fill="#7a6675" d="M 49.918,64.852 52.034,63.52 51,62.912 47.918,64.852 C 46.413,65.8 45.5,67.454 45.5,69.232 l 0,15.247 2,0 0,-15.246 c 0,-1.779 0.913,-3.433 2.418,-4.381 z"/></g><g id="g53"><path id="path55" fill="#7a6675" d="m 51.849,64.852 -2.116,-1.332 1.034,-0.608 3.082,1.94 c 1.505,0.948 2.418,2.602 2.418,4.38 l 0,15.247 -2,0 0,-15.246 c 0,-1.779 -0.913,-3.433 -2.418,-4.381 z"/></g><g id="g57"><rect id="rect59" width="10" height="39" x="23.5" y="45.479" fill="#f2b894"/></g><g id="g61"><polygon id="polygon63" fill="#f2b894" points="23.5 45.5 23.5 32.479 33.5 33.479 33.5 45.5"/></g><g id="g65"><rect id="rect67" width="10" height="39" x="13.5" y="45.479" fill="#fed4af" transform="rotate(180 18.5 64.98)"/></g><g id="g69"><rect id="rect71" width="10" height="13" x="13.5" y="32.5" fill="#fed4af"/></g><g id="g73"><polygon id="polygon75" fill="#f2b894" points="3.5 45.5 3.5 33.5 13.5 32.5 13.5 45.5"/></g><g id="g77"><rect id="rect79" width="10" height="39" x="3.5" y="45.479" fill="#f2b894" transform="rotate(180 8.5 64.98)"/></g><g id="g81"><rect id="rect83" width="5" height="14" x="62.5" y="33.479" fill="#bd866e" transform="rotate(180 65 40.48)"/></g><g id="g85"><rect id="rect87" width="24" height="6" x="38.5" y="39.479" fill="#dfa683"/></g><g id="g89"><path id="path91" fill="#bd866e" d="m 40.5,41.479 c -1.105,0 -2,0.895 -2,2 l 0,1.333 0.122,0 c 0.276,-0.775 1.008,-1.333 1.878,-1.333 0.87,0 1.602,0.558 1.878,1.333 l 0.122,0 0,-1.333 c 0,-1.104 -0.895,-2 -2,-2 z"/></g><g id="g93"><path id="path95" fill="#bd866e" d="m 44.5,41.479 c -1.105,0 -2,0.895 -2,2 l 0,1.333 0.122,0 c 0.276,-0.775 1.008,-1.333 1.878,-1.333 0.87,0 1.602,0.558 1.878,1.333 l 0.122,0 0,-1.333 c 0,-1.104 -0.895,-2 -2,-2 z"/></g><g id="g97"><path id="path99" fill="#bd866e" d="m 48.5,41.479 c -1.105,0 -2,0.895 -2,2 l 0,1.333 0.122,0 c 0.276,-0.775 1.008,-1.333 1.878,-1.333 0.87,0 1.602,0.558 1.878,1.333 l 0.122,0 0,-1.333 c 0,-1.104 -0.895,-2 -2,-2 z"/></g><g id="g101"><path id="path103" fill="#bd866e" d="m 52.5,41.479 c -1.105,0 -2,0.895 -2,2 l 0,1.333 0.122,0 c 0.276,-0.775 1.008,-1.333 1.878,-1.333 0.87,0 1.602,0.558 1.878,1.333 l 0.122,0 0,-1.333 c 0,-1.104 -0.895,-2 -2,-2 z"/></g><g id="g105"><path id="path107" fill="#bd866e" d="m 56.5,41.479 c -1.105,0 -2,0.895 -2,2 l 0,1.333 0.122,0 c 0.276,-0.775 1.008,-1.333 1.878,-1.333 0.87,0 1.602,0.558 1.878,1.333 l 0.122,0 0,-1.333 c 0,-1.104 -0.895,-2 -2,-2 z"/></g><g id="g109"><path id="path111" fill="#bd866e" d="m 60.5,41.479 c -1.105,0 -2,0.895 -2,2 l 0,1.333 0.122,0 c 0.276,-0.775 1.008,-1.333 1.878,-1.333 0.87,0 1.602,0.558 1.878,1.333 l 0.122,0 0,-1.333 c 0,-1.104 -0.895,-2 -2,-2 z"/></g><g id="g113"><rect id="rect115" width="24" height="2" x="38.5" y="38.99" fill="#bd866e"/></g><g id="g117"><rect id="rect119" width="10" height="2" x="3.5" y="47.479" fill="#bd866e"/></g><g id="g121"><rect id="rect123" width="10" height="2" x="13.5" y="47.479" fill="#f2b894"/></g><g id="g125"><rect id="rect127" width="10" height="2" x="23.5" y="47.479" fill="#bd866e"/></g><g id="g129"><rect id="rect131" width="5" height="2" x="33.5" y="47.479" fill="#916557"/></g><g id="g133"><polyline id="polyline135" fill="#7a6675" points="33.25 22.479 27.75 22.479 30.75 16.479 32.25 16.479"/></g><g id="g137"><rect id="rect139" width="24" height="13" x="38" y="20.979" fill="#fed4af"/></g><g id="g141"><rect id="rect143" width="24" height="2" x="38.501" y="20.479" fill="#f2b894"/></g><g id="g145"><path id="path147" fill="#8d7e8a" d="m 40,32.979 0,-9 c 0,-0.823 1.153,-1.5 2.251,-1.5 1.098,0 1.876,0.677 1.876,1.5 l -0.128,3 0,6"/></g><g id="g149"><path id="path151" fill="#8d7e8a" d="m 44,32.979 0,-9 c 0,-0.823 1.153,-1.5 2.251,-1.5 1.098,0 1.876,0.677 1.876,1.5 l -0.128,3 0,6"/></g><g id="g153"><path id="path155" fill="#8d7e8a" d="m 48,32.979 0,-9 c 0,-0.823 1.153,-1.5 2.251,-1.5 1.098,0 1.876,0.677 1.876,1.5 l -0.128,3 0,6"/></g><g id="g157"><path id="path159" fill="#8d7e8a" d="m 52,32.979 0,-9 c 0,-0.823 1.153,-1.5 2.251,-1.5 1.098,0 1.876,0.677 1.876,1.5 l -0.128,3 0,6"/></g><g id="g161"><path id="path163" fill="#8d7e8a" d="m 56,32.979 0,-9 c 0,-0.823 1.153,-1.5 2.251,-1.5 1.098,0 1.876,0.677 1.876,1.5 l -0.128,3 0,6"/></g><g id="g165"><rect id="rect167" width="5" height="13" x="33" y="20.979" fill="#fed4af"/></g><g id="g169"><rect id="rect171" width="5" height="2" x="33.501" y="20.479" fill="#f2b894"/></g><g id="g173"><rect id="rect175" width="2" height="13" x="36.5" y="20.854" fill="#f2b894"/></g><g id="g177"><path id="path179" fill="#8d7e8a" d="m 38.5,26.609 c 0,-0.617 -0.677,-1.124 -1.5,-1.124 -0.823,0 -1.5,0.507 -1.5,1.124 l 0,1 0,5.842 3,0.033 0,-6.875 z"/></g><g id="g181"><rect id="rect183" width="5" height="13" x="62" y="20.979" fill="#fed4af" transform="rotate(180 64.5 27.48)"/></g><g id="g185"><rect id="rect187" width="5" height="2" x="62.501" y="20.479" fill="#f2b894"/></g><g id="g189"><rect id="rect191" width="2" height="13" x="62" y="20.979" fill="#f2b894"/></g><g id="g193"><path id="path195" fill="#8d7e8a" d="m 62,26.603 c 0,-0.617 0.677,-1.124 1.5,-1.124 0.823,0 1.5,0.507 1.5,1.124 l 0,1 0,5.842 -3,0.033 0,-6.875 z"/></g><g id="g197"><path id="path199" fill="#7a6675" d="m 42.251,24.479 c 1.092,0 2.115,0.67 2.125,1.487 l 0.064,-1.987 c 0,-0.823 -1.122,-1.5 -2.22,-1.5 -1.098,0 -2.22,0.677 -2.22,1.5 l 0,2 c 0,-0.823 1.153,-1.5 2.251,-1.5 z"/></g><g id="g201"><path id="path203" fill="#7a6675" d="m 46.251,24.479 c 1.092,0 2.115,0.67 2.125,1.487 l 0.064,-1.987 c 0,-0.823 -1.122,-1.5 -2.22,-1.5 -1.098,0 -2.22,0.677 -2.22,1.5 l 0,2 c 0,-0.823 1.153,-1.5 2.251,-1.5 z"/></g><g id="g205"><path id="path207" fill="#7a6675" d="m 50.251,24.479 c 1.092,0 2.115,0.67 2.125,1.487 l 0.064,-1.987 c 0,-0.823 -1.122,-1.5 -2.22,-1.5 -1.098,0 -2.22,0.677 -2.22,1.5 l 0,2 c 0,-0.823 1.153,-1.5 2.251,-1.5 z"/></g><g id="g209"><path id="path211" fill="#7a6675" d="m 54.251,24.479 c 1.092,0 2.115,0.67 2.125,1.487 l 0.064,-1.987 c 0,-0.823 -1.122,-1.5 -2.22,-1.5 -1.098,0 -2.22,0.677 -2.22,1.5 l 0,2 c 0,-0.823 1.153,-1.5 2.251,-1.5 z"/></g><g id="g213"><path id="path215" fill="#7a6675" d="m 58.251,24.479 c 1.092,0 2.115,0.67 2.125,1.487 l 0.064,-1.987 c 0,-0.823 -1.122,-1.5 -2.22,-1.5 -1.098,0 -2.22,0.677 -2.22,1.5 l 0,2 c 0,-0.823 1.153,-1.5 2.251,-1.5 z"/></g><g id="g217"><path id="path219" fill="#7a6675" d="m 37,25.479 c -0.823,0 -1.5,0.508 -1.5,1.124 l 0,1 0,1 c 0,-0.617 0.677,-1.124 1.5,-1.124 0.823,0 1.5,0.508 1.5,1.124 l 0,-2 c 0,-0.616 -0.677,-1.124 -1.5,-1.124 z"/></g><g id="g221"><path id="path223" fill="#7a6675" d="m 63.5,25.479 c -0.823,0 -1.5,0.508 -1.5,1.124 l 0,2 c 0,-0.617 0.677,-1.124 1.5,-1.124 0.823,0 1.5,0.508 1.5,1.124 l 0,-1 0,-1 c 0,-0.616 -0.677,-1.124 -1.5,-1.124 z"/></g><g id="g225"><rect id="rect227" width="38" height="2" x="31.5" y="18.479" fill="#ed6d64"/></g><g id="g229"><rect id="rect231" width="6" height="2" x="27.5" y="22.479" fill="#ed6d64"/></g><g id="g233"><rect id="rect235" width="4" height="8" x="29" y="24.979" fill="#fed4af"/></g><g id="g237"><rect id="rect239" width="4" height="2" x="29" y="24.979" fill="#f2b894"/></g><g id="g241"><rect id="rect243" width="2" height="8" x="32" y="24.979" fill="#f2b894"/></g><g id="g245"><rect id="rect247" width="4" height="8" x="67" y="24.979" fill="#fed4af"/></g><g id="g249"><rect id="rect251" width="4" height="2" x="67.406" y="24.603" fill="#f2b894"/></g><g id="g253"><rect id="rect255" width="2" height="8" x="67" y="24.979" fill="#f2b894"/></g><g id="g257"><rect id="rect259" width="6" height="2" x="67.5" y="22.479" fill="#ed6d64"/></g><g id="g261"><polygon id="polygon263" fill="#8d7e8a" points="31.501 18.479 34.501 12.479 66.501 12.479 69.501 18.479"/></g><g id="g265"><polygon id="polygon267" fill="#9e919c" points="63.5 12.979 66.5 18.979 69.5 18.979 66.5 12.979"/></g><g id="g269"><rect id="rect271" width="24" height="4.02" x="38.5" y="45.459" fill="#bd866e"/></g><g id="g273"><rect id="rect275" width="2" height="39" x="38.5" y="45.479" fill="#bd866e"/></g><g id="g277"><rect id="rect279" width="2" height="39" x="60.5" y="45.479" fill="#bd866e"/></g><g id="g281"><path id="path283" fill="#8d7e8a" d="m 44.5,60.479 0,0 c -0.552,0 -1,-0.448 -1,-1 l 0,0 c 0,-0.552 0.448,-1 1,-1 l 0,0 c 0.552,0 1,0.448 1,1 l 0,0 c 0,0.552 -0.448,1 -1,1 z"/></g><g id="g285"><path id="path287" fill="#8d7e8a" d="m 56.5,60.479 0,0 c -0.552,0 -1,-0.448 -1,-1 l 0,0 c 0,-0.552 0.448,-1 1,-1 l 0,0 c 0.552,0 1,0.448 1,1 l 0,0 c 0,0.552 -0.448,1 -1,1 z"/></g><g id="g289"><rect id="rect291" width="5" height="12.021" x="33.5" y="33.479" fill="#bd866e"/></g><g id="g293"><rect id="rect295" width="5" height="2" x="33.5" y="35.479" fill="#916557"/></g><g id="g297"><rect id="rect299" width="5" height="2" x="36.5" y="36.479" fill="#916557"/></g><g id="g301"><rect id="rect303" width="5" height="2" x="62.5" y="35.479" fill="#916557"/></g><g id="g305"><rect id="rect307" width="5" height="2" x="59.5" y="36.479" fill="#916557"/></g><g id="g309"><path id="path311" fill="#e3f3fc" d="m 9.5,42.479 -2,0 0,-3 c 0,-0.552 0.448,-1 1,-1 l 0,0 c 0.552,0 1,0.448 1,1 l 0,3 z"/></g><g id="g313"><path id="path315" fill="#e3f3fc" d="m 19.5,42.479 -2,0 0,-3 c 0,-0.552 0.448,-1 1,-1 l 0,0 c 0.552,0 1,0.448 1,1 l 0,3 z"/></g><g id="g317"><path id="path319" fill="#e3f3fc" d="m 29.5,42.479 -2,0 0,-3 c 0,-0.552 0.448,-1 1,-1 l 0,0 c 0.552,0 1,0.448 1,1 l 0,3 z"/></g><g id="g321"><rect id="rect323" width="10" height="39" x="67.5" y="45.479" fill="#f2b894" transform="rotate(180 72.5 64.98)"/></g><g id="g325"><polygon id="polygon327" fill="#f2b894" points="77.5 45.5 77.5 32.479 67.5 33.479 67.5 45.5"/></g><g id="g329"><rect id="rect331" width="10" height="39" x="77.5" y="45.479" fill="#fed4af"/></g><g id="g333"><rect id="rect335" width="10" height="13" x="77.5" y="32.5" fill="#fed4af" transform="rotate(180 82.5 39)"/></g><g id="g337"><polygon id="polygon339" fill="#f2b894" points="97.5 45.5 97.5 33.5 87.5 32.5 87.5 45.5"/></g><g id="g341"><rect id="rect343" width="10" height="39" x="87.5" y="45.479" fill="#f2b894"/></g><g id="g345"><rect id="rect347" width="10" height="2" x="87.5" y="47.479" fill="#bd866e"/></g><g id="g349"><rect id="rect351" width="10" height="2" x="77.5" y="47.479" fill="#f2b894"/></g><g id="g353"><rect id="rect355" width="10" height="2" x="67.5" y="47.479" fill="#bd866e"/></g><g id="g357"><path id="path359" fill="#e3f3fc" d="m 91.5,42.479 2,0 0,-3 c 0,-0.552 -0.448,-1 -1,-1 l 0,0 c -0.552,0 -1,0.448 -1,1 l 0,3 z"/></g><g id="g361"><path id="path363" fill="#e3f3fc" d="m 81.5,42.479 2,0 0,-3 c 0,-0.552 -0.448,-1 -1,-1 l 0,0 c -0.552,0 -1,0.448 -1,1 l 0,3 z"/></g><g id="g365"><path id="path367" fill="#e3f3fc" d="m 71.5,42.479 2,0 0,-3 c 0,-0.552 -0.448,-1 -1,-1 l 0,0 c -0.552,0 -1,0.448 -1,1 l 0,3 z"/></g><g id="g369"><rect id="rect371" width="4.75" height="37" x="33.5" y="47.479" fill="#bd866e"/></g><g id="g373"><rect id="rect375" width="5" height="2" x="33.5" y="47.479" fill="#916557"/></g><g id="g377"><rect id="rect379" width="5" height="2" x="62.5" y="47.479" fill="#916557"/></g><g id="g381"><path id="path383" fill="#594454" d="m 34,84.979 -11,0 0,-40 11,0 0,40 z m -10,-1 9,0 0,-38 -9,0 0,38 z"/></g><g id="g385"><path id="path387" fill="#594454" d="m 29.5,33.479 c -0.276,0 -0.5,-0.224 -0.5,-0.5 l 0,-8 c 0,-0.276 0.224,-0.5 0.5,-0.5 0.276,0 0.5,0.224 0.5,0.5 l 0,8 c 0,0.277 -0.224,0.5 -0.5,0.5 z"/></g><g id="g389"><path id="path391" fill="#594454" d="m 71.5,33.479 c -0.276,0 -0.5,-0.224 -0.5,-0.5 l 0,-8 c 0,-0.276 0.224,-0.5 0.5,-0.5 0.276,0 0.5,0.224 0.5,0.5 l 0,8 c 0,0.277 -0.224,0.5 -0.5,0.5 z"/></g><g id="g393"><path id="path395" fill="#594454" d="m 33,22.979 -5.5,0 c -0.173,0 -0.334,-0.09 -0.426,-0.237 -0.091,-0.147 -0.099,-0.331 -0.021,-0.486 l 3,-6 C 30.138,16.087 30.311,15.98 30.5,15.98 l 2,0 c 0.276,0 0.5,0.224 0.5,0.5 0,0.276 -0.224,0.5 -0.5,0.5 l -1.691,0 -2.5,5 4.691,0 c 0.276,0 0.5,0.224 0.5,0.5 0,0.276 -0.224,0.499 -0.5,0.499 z"/></g><g id="g397"><path id="path399" fill="#594454" d="m 73.5,22.979 c -0.183,0 -0.359,-0.102 -0.447,-0.276 l -2.861,-5.724 -2.192,0 c -0.276,0 -0.5,-0.224 -0.5,-0.5 0,-0.276 0.224,-0.5 0.5,-0.5 l 2.5,0 c 0.189,0 0.362,0.107 0.447,0.276 l 3,6 c 0.123,0.247 0.023,0.547 -0.224,0.671 -0.072,0.037 -0.148,0.053 -0.223,0.053 z"/></g><g id="g401"><path id="path403" fill="#594454" d="m 13.5,45.979 -10,0 c -0.276,0 -0.5,-0.224 -0.5,-0.5 l 0,-12 c 0,-0.257 0.194,-0.472 0.45,-0.497 l 10,-1 c 0.141,-0.016 0.28,0.032 0.386,0.126 0.104,0.095 0.164,0.23 0.164,0.371 l 0,13 c 0,0.277 -0.224,0.5 -0.5,0.5 z m -9.5,-1 9,0 0,-11.947 -9,0.899 0,11.048 z"/></g><g id="g405"><path id="path407" fill="#594454" d="M 5.5,57 C 5.224,57 5,56.776 5,56.5 l 0,-6 C 5,50.223 5.224,50 5.5,50 5.776,50 6,50.223 6,50.5 l 0,6 C 6,56.776 5.776,57 5.5,57 Z"/></g><g id="g409"><path id="path411" fill="#594454" d="M 5.5,43 C 5.224,43 5,42.776 5,42.5 l 0,-4 C 5,38.223 5.224,38 5.5,38 5.776,38 6,38.223 6,38.5 l 0,4 C 6,42.776 5.776,43 5.5,43 Z"/></g><g id="g413"><path id="path415" fill="#594454" d="M 11.5,43 C 11.224,43 11,42.776 11,42.5 l 0,-4 c 0,-0.276 0.224,-0.5 0.5,-0.5 0.276,0 0.5,0.224 0.5,0.5 l 0,4 c 0,0.276 -0.224,0.5 -0.5,0.5 z"/></g><g id="g417"><path id="path419" fill="#594454" d="M 8.5,57 C 8.224,57 8,56.776 8,56.5 l 0,-6 C 8,50.223 8.224,50 8.5,50 8.776,50 9,50.223 9,50.5 l 0,6 C 9,56.776 8.776,57 8.5,57 Z"/></g><g id="g421"><path id="path423" fill="#594454" d="M 11.5,57 C 11.224,57 11,56.776 11,56.5 l 0,-6 c 0,-0.276 0.224,-0.5 0.5,-0.5 0.276,0 0.5,0.224 0.5,0.5 l 0,6 c 0,0.276 -0.224,0.5 -0.5,0.5 z"/></g><g id="g425"><path id="path427" fill="#594454" d="M 15.5,57 C 15.224,57 15,56.776 15,56.5 l 0,-6 c 0,-0.276 0.224,-0.5 0.5,-0.5 0.276,0 0.5,0.224 0.5,0.5 l 0,6 c 0,0.276 -0.224,0.5 -0.5,0.5 z"/></g><g id="g429"><path id="path431" fill="#594454" d="M 18.5,57 C 18.224,57 18,56.776 18,56.5 l 0,-6 c 0,-0.276 0.224,-0.5 0.5,-0.5 0.276,0 0.5,0.224 0.5,0.5 l 0,6 c 0,0.276 -0.224,0.5 -0.5,0.5 z"/></g><g id="g433"><path id="path435" fill="#594454" d="M 21.5,57 C 21.224,57 21,56.776 21,56.5 l 0,-6 c 0,-0.276 0.224,-0.5 0.5,-0.5 0.276,0 0.5,0.224 0.5,0.5 l 0,6 c 0,0.276 -0.224,0.5 -0.5,0.5 z"/></g><g id="g437"><path id="path439" fill="#594454" d="M 25.5,57 C 25.224,57 25,56.776 25,56.5 l 0,-6 c 0,-0.276 0.224,-0.5 0.5,-0.5 0.276,0 0.5,0.224 0.5,0.5 l 0,6 c 0,0.276 -0.224,0.5 -0.5,0.5 z"/></g><g id="g441"><path id="path443" fill="#594454" d="M 28.5,57 C 28.224,57 28,56.776 28,56.5 l 0,-6 c 0,-0.276 0.224,-0.5 0.5,-0.5 0.276,0 0.5,0.224 0.5,0.5 l 0,6 c 0,0.276 -0.224,0.5 -0.5,0.5 z"/></g><g id="g445"><path id="path447" fill="#594454" d="M 31.5,57 C 31.224,57 31,56.776 31,56.5 l 0,-6 c 0,-0.276 0.224,-0.5 0.5,-0.5 0.276,0 0.5,0.224 0.5,0.5 l 0,6 c 0,0.276 -0.224,0.5 -0.5,0.5 z"/></g><g id="g449"><path id="path451" fill="#594454" d="m 62.5,45.979 -24,0 c -0.276,0 -0.5,-0.224 -0.5,-0.5 0,-0.276 0.224,-0.5 0.5,-0.5 l 24,0 c 0.276,0 0.5,0.224 0.5,0.5 0,0.276 -0.224,0.5 -0.5,0.5 z"/></g><g id="g453"><path id="path455" fill="#594454" d="m 37.5,35.979 -33.5,0 c -0.276,0 -0.5,-0.224 -0.5,-0.5 0,-0.276 0.224,-0.5 0.5,-0.5 l 33.5,0 c 0.276,0 0.5,0.224 0.5,0.5 0,0.276 -0.224,0.5 -0.5,0.5 z"/></g><g id="g457"><path id="path459" fill="#594454" d="m 60.5,31.979 -19.5,0 c -0.276,0 -0.5,-0.224 -0.5,-0.5 0,-0.276 0.224,-0.5 0.5,-0.5 l 19.5,0 c 0.276,0 0.5,0.224 0.5,0.5 0,0.276 -0.224,0.5 -0.5,0.5 z"/></g><g id="g461"><path id="path463" fill="#594454" d="m 38.5,31.979 -2.5,0 c -0.276,0 -0.5,-0.224 -0.5,-0.5 0,-0.276 0.224,-0.5 0.5,-0.5 l 2.5,0 c 0.276,0 0.5,0.224 0.5,0.5 0,0.276 -0.224,0.5 -0.5,0.5 z"/></g><g id="g465"><path id="path467" fill="#594454" d="m 65.5,31.979 -2.5,0 c -0.276,0 -0.5,-0.224 -0.5,-0.5 0,-0.276 0.224,-0.5 0.5,-0.5 l 2.5,0 c 0.276,0 0.5,0.224 0.5,0.5 0,0.276 -0.224,0.5 -0.5,0.5 z"/></g><g id="g469"><path id="path471" fill="#594454" d="m 38.5,47.979 -34.5,0 c -0.276,0 -0.5,-0.224 -0.5,-0.5 0,-0.276 0.224,-0.5 0.5,-0.5 l 34.5,0 c 0.276,0 0.5,0.224 0.5,0.5 0,0.276 -0.224,0.5 -0.5,0.5 z"/></g><g id="g473"><path id="path475" fill="#594454" d="m 69.5,47.979 -34.5,0 c -0.276,0 -0.5,-0.224 -0.5,-0.5 0,-0.276 0.224,-0.5 0.5,-0.5 l 34.5,0 c 0.276,0 0.5,0.224 0.5,0.5 0,0.276 -0.224,0.5 -0.5,0.5 z"/></g><g id="g477"><path id="path479" fill="#594454" d="m 97,47.979 -34.5,0 c -0.276,0 -0.5,-0.224 -0.5,-0.5 0,-0.276 0.224,-0.5 0.5,-0.5 l 34.5,0 c 0.276,0 0.5,0.224 0.5,0.5 0,0.276 -0.224,0.5 -0.5,0.5 z"/></g><g id="g481"><path id="path483" fill="#594454" d="m 9.5,42.979 -2,0 c -0.276,0 -0.5,-0.224 -0.5,-0.5 l 0,-3 c 0,-0.827 0.673,-1.5 1.5,-1.5 0.827,0 1.5,0.673 1.5,1.5 l 0,3 c 0,0.277 -0.224,0.5 -0.5,0.5 z m -1.5,-1 1,0 0,-2.5 c 0,-0.275 -0.225,-0.5 -0.5,-0.5 -0.275,0 -0.5,0.225 -0.5,0.5 l 0,2.5 z"/></g><g id="g485"><path id="path487" fill="#594454" d="m 23.5,45.979 -10,0 c -0.276,0 -0.5,-0.224 -0.5,-0.5 l 0,-13 c 0,-0.276 0.224,-0.5 0.5,-0.5 l 10,0 c 0.276,0 0.5,0.224 0.5,0.5 l 0,13 c 0,0.277 -0.224,0.5 -0.5,0.5 z m -9.5,-1 9,0 0,-12 -9,0 0,12 z"/></g><g id="g489"><path id="path491" fill="#594454" d="M 15.5,43 C 15.224,43 15,42.776 15,42.5 l 0,-4 c 0,-0.276 0.224,-0.5 0.5,-0.5 0.276,0 0.5,0.224 0.5,0.5 l 0,4 c 0,0.276 -0.224,0.5 -0.5,0.5 z"/></g><g id="g493"><path id="path495" fill="#594454" d="M 21.5,43 C 21.224,43 21,42.776 21,42.5 l 0,-4 c 0,-0.276 0.224,-0.5 0.5,-0.5 0.276,0 0.5,0.224 0.5,0.5 l 0,4 c 0,0.276 -0.224,0.5 -0.5,0.5 z"/></g><g id="g497"><path id="path499" fill="#594454" d="m 19.5,42.979 -2,0 c -0.276,0 -0.5,-0.224 -0.5,-0.5 l 0,-3 c 0,-0.827 0.673,-1.5 1.5,-1.5 0.827,0 1.5,0.673 1.5,1.5 l 0,3 c 0,0.277 -0.224,0.5 -0.5,0.5 z m -1.5,-1 1,0 0,-2.5 c 0,-0.275 -0.225,-0.5 -0.5,-0.5 -0.275,0 -0.5,0.225 -0.5,0.5 l 0,2.5 z"/></g><g id="g501"><path id="path503" fill="#594454" d="m 33.5,45.979 -10,0 c -0.276,0 -0.5,-0.224 -0.5,-0.5 l 0,-13 c 0,-0.142 0.06,-0.276 0.164,-0.371 0.105,-0.095 0.246,-0.143 0.386,-0.126 l 10,1 c 0.256,0.025 0.45,0.24 0.45,0.497 l 0,12 c 0,0.277 -0.224,0.5 -0.5,0.5 z m -9.5,-1 9,0 0,-11.048 -9,-0.899 0,11.947 z"/></g><g id="g505"><path id="path507" fill="#594454" d="M 25.5,43 C 25.224,43 25,42.776 25,42.5 l 0,-4 c 0,-0.276 0.224,-0.5 0.5,-0.5 0.276,0 0.5,0.224 0.5,0.5 l 0,4 c 0,0.276 -0.224,0.5 -0.5,0.5 z"/></g><g id="g509"><path id="path511" fill="#594454" d="M 31.5,43 C 31.224,43 31,42.776 31,42.5 l 0,-4 c 0,-0.276 0.224,-0.5 0.5,-0.5 0.276,0 0.5,0.224 0.5,0.5 l 0,4 c 0,0.276 -0.224,0.5 -0.5,0.5 z"/></g><g id="g513"><path id="path515" fill="#594454" d="m 29.5,42.979 -2,0 c -0.276,0 -0.5,-0.224 -0.5,-0.5 l 0,-3 c 0,-0.827 0.673,-1.5 1.5,-1.5 0.827,0 1.5,0.673 1.5,1.5 l 0,3 c 0,0.277 -0.224,0.5 -0.5,0.5 z m -1.5,-1 1,0 0,-2.5 c 0,-0.275 -0.225,-0.5 -0.5,-0.5 -0.275,0 -0.5,0.225 -0.5,0.5 l 0,2.5 z"/></g><g id="g517"><path id="path519" fill="#594454" d="m 55.375,66.979 -8.75,0 c -0.276,0 -0.5,-0.224 -0.5,-0.5 0,-0.276 0.224,-0.5 0.5,-0.5 l 8.75,0 c 0.276,0 0.5,0.224 0.5,0.5 0,0.276 -0.224,0.5 -0.5,0.5 z"/></g><g id="g521"><path id="path523" fill="#594454" d="m 56,69.979 -10,0 c -0.276,0 -0.5,-0.224 -0.5,-0.5 0,-0.276 0.224,-0.5 0.5,-0.5 l 10,0 c 0.276,0 0.5,0.224 0.5,0.5 0,0.276 -0.224,0.5 -0.5,0.5 z"/></g><g id="g525"><path id="path527" fill="#594454" d="m 56,72.979 -10,0 c -0.276,0 -0.5,-0.224 -0.5,-0.5 0,-0.276 0.224,-0.5 0.5,-0.5 l 10,0 c 0.276,0 0.5,0.224 0.5,0.5 0,0.276 -0.224,0.5 -0.5,0.5 z"/></g><g id="g529"><path id="path531" fill="#594454" d="m 56,75.979 -10,0 c -0.276,0 -0.5,-0.224 -0.5,-0.5 0,-0.276 0.224,-0.5 0.5,-0.5 l 10,0 c 0.276,0 0.5,0.224 0.5,0.5 0,0.276 -0.224,0.5 -0.5,0.5 z"/></g><g id="g533"><path id="path535" fill="#594454" d="m 56,78.979 -10,0 c -0.276,0 -0.5,-0.224 -0.5,-0.5 0,-0.276 0.224,-0.5 0.5,-0.5 l 10,0 c 0.276,0 0.5,0.224 0.5,0.5 0,0.276 -0.224,0.5 -0.5,0.5 z"/></g><g id="g537"><path id="path539" fill="#594454" d="m 56,81.979 -10,0 c -0.276,0 -0.5,-0.224 -0.5,-0.5 0,-0.276 0.224,-0.5 0.5,-0.5 l 10,0 c 0.276,0 0.5,0.224 0.5,0.5 0,0.276 -0.224,0.5 -0.5,0.5 z"/></g><g id="g541"><path id="path543" fill="#594454" d="M 42.5,57 C 42.224,57 42,56.776 42,56.5 l 0,-6 c 0,-0.276 0.224,-0.5 0.5,-0.5 0.276,0 0.5,0.224 0.5,0.5 l 0,6 c 0,0.276 -0.224,0.5 -0.5,0.5 z"/></g><g id="g545"><path id="path547" fill="#594454" d="m 45,25.979 -1,0 c -0.276,0 -0.5,-0.224 -0.5,-0.5 0,-0.276 0.224,-0.5 0.5,-0.5 l 1,0 c 0.276,0 0.5,0.224 0.5,0.5 0,0.276 -0.224,0.5 -0.5,0.5 z"/></g><g id="g549"><path id="path551" fill="#594454" d="m 41,25.979 -1,0 c -0.276,0 -0.5,-0.224 -0.5,-0.5 0,-0.276 0.224,-0.5 0.5,-0.5 l 1,0 c 0.276,0 0.5,0.224 0.5,0.5 0,0.276 -0.224,0.5 -0.5,0.5 z"/></g><g id="g553"><path id="path555" fill="#594454" d="m 36,27.979 -1,0 c -0.276,0 -0.5,-0.224 -0.5,-0.5 0,-0.276 0.224,-0.5 0.5,-0.5 l 1,0 c 0.276,0 0.5,0.224 0.5,0.5 0,0.276 -0.224,0.5 -0.5,0.5 z"/></g><g id="g557"><path id="path559" fill="#594454" d="m 38,27.979 c -0.07,0 -0.13,-0.01 -0.19,-0.04 -0.06,-0.021 -0.12,-0.061 -0.16,-0.11 -0.1,-0.09 -0.149,-0.22 -0.149,-0.35 0,-0.13 0.05,-0.26 0.149,-0.351 0.141,-0.14 0.351,-0.189 0.54,-0.109 0.061,0.02 0.12,0.06 0.16,0.109 0.101,0.091 0.15,0.221 0.15,0.351 0,0.13 -0.05,0.26 -0.15,0.35 -0.04,0.05 -0.1,0.09 -0.16,0.11 -0.06,0.03 -0.121,0.04 -0.19,0.04 z"/></g><g id="g561"><path id="path563" fill="#594454" d="m 65,27.979 c -0.07,0 -0.13,-0.01 -0.19,-0.04 -0.06,-0.021 -0.12,-0.061 -0.16,-0.11 -0.1,-0.09 -0.149,-0.22 -0.149,-0.35 0,-0.13 0.05,-0.26 0.149,-0.351 0.131,-0.14 0.351,-0.189 0.54,-0.109 0.061,0.02 0.12,0.06 0.16,0.109 0.09,0.091 0.15,0.221 0.15,0.351 0,0.13 -0.05,0.26 -0.15,0.35 -0.04,0.05 -0.1,0.09 -0.16,0.11 -0.06,0.03 -0.121,0.04 -0.19,0.04 z"/></g><g id="g565"><path id="path567" fill="#594454" d="m 63,27.979 -1,0 c -0.276,0 -0.5,-0.224 -0.5,-0.5 0,-0.276 0.224,-0.5 0.5,-0.5 l 1,0 c 0.276,0 0.5,0.224 0.5,0.5 0,0.276 -0.224,0.5 -0.5,0.5 z"/></g><g id="g569"><path id="path571" fill="#594454" d="m 49,25.979 -1,0 c -0.276,0 -0.5,-0.224 -0.5,-0.5 0,-0.276 0.224,-0.5 0.5,-0.5 l 1,0 c 0.276,0 0.5,0.224 0.5,0.5 0,0.276 -0.224,0.5 -0.5,0.5 z"/></g><g id="g573"><path id="path575" fill="#594454" d="m 53,25.979 -1,0 c -0.276,0 -0.5,-0.224 -0.5,-0.5 0,-0.276 0.224,-0.5 0.5,-0.5 l 1,0 c 0.276,0 0.5,0.224 0.5,0.5 0,0.276 -0.224,0.5 -0.5,0.5 z"/></g><g id="g577"><path id="path579" fill="#594454" d="m 57,25.979 -1,0 c -0.276,0 -0.5,-0.224 -0.5,-0.5 0,-0.276 0.224,-0.5 0.5,-0.5 l 1,0 c 0.276,0 0.5,0.224 0.5,0.5 0,0.276 -0.224,0.5 -0.5,0.5 z"/></g><g id="g581"><path id="path583" fill="#594454" d="m 60,25.979 c -0.13,0 -0.26,-0.05 -0.351,-0.15 -0.1,-0.09 -0.149,-0.22 -0.149,-0.35 0,-0.13 0.05,-0.26 0.149,-0.351 0.181,-0.189 0.521,-0.189 0.7,0 0.101,0.091 0.15,0.221 0.15,0.351 0,0.13 -0.05,0.26 -0.15,0.35 -0.089,0.1 -0.219,0.15 -0.349,0.15 z"/></g><g id="g585"><path id="path587" d="m 60.5,25.979 c -0.13,0 -0.26,-0.05 -0.351,-0.15 -0.1,-0.09 -0.149,-0.22 -0.149,-0.35 0,-0.13 0.05,-0.26 0.149,-0.351 0.181,-0.189 0.521,-0.189 0.7,0 0.101,0.091 0.151,0.221 0.151,0.351 0,0.13 -0.05,0.26 -0.15,0.35 -0.09,0.1 -0.22,0.15 -0.35,0.15 z"/></g><g id="g589"><path id="path591" fill="#594454" d="M 46.5,57 C 46.224,57 46,56.776 46,56.5 l 0,-6 c 0,-0.276 0.224,-0.5 0.5,-0.5 0.276,0 0.5,0.224 0.5,0.5 l 0,6 c 0,0.276 -0.224,0.5 -0.5,0.5 z"/></g><g id="g593"><path id="path595" fill="#594454" d="M 50.5,57 C 50.224,57 50,56.776 50,56.5 l 0,-6 c 0,-0.276 0.224,-0.5 0.5,-0.5 0.276,0 0.5,0.224 0.5,0.5 l 0,6 c 0,0.276 -0.224,0.5 -0.5,0.5 z"/></g><g id="g597"><path id="path599" fill="#594454" d="M 54.5,57 C 54.224,57 54,56.776 54,56.5 l 0,-6 c 0,-0.276 0.224,-0.5 0.5,-0.5 0.276,0 0.5,0.224 0.5,0.5 l 0,6 c 0,0.276 -0.224,0.5 -0.5,0.5 z"/></g><g id="g601"><path id="path603" fill="#594454" d="m 51,85 c -0.276,0 -0.5,-0.224 -0.5,-0.5 l 0,-21 c 0,-0.276 0.224,-0.5 0.5,-0.5 0.276,0 0.5,0.224 0.5,0.5 l 0,21 c 0,0.276 -0.224,0.5 -0.5,0.5 z"/></g><g id="g605"><path id="path607" fill="#594454" d="M 58.5,57 C 58.224,57 58,56.776 58,56.5 l 0,-6 c 0,-0.276 0.224,-0.5 0.5,-0.5 0.276,0 0.5,0.224 0.5,0.5 l 0,6 c 0,0.276 -0.224,0.5 -0.5,0.5 z"/></g><g id="g609"><path id="path611" fill="#594454" d="m 13.5,84.979 -10,0 c -0.276,0 -0.5,-0.224 -0.5,-0.5 l 0,-39 c 0,-0.276 0.224,-0.5 0.5,-0.5 l 10,0 c 0.276,0 0.5,0.224 0.5,0.5 l 0,39 c 0,0.277 -0.224,0.5 -0.5,0.5 z m -9.5,-1 9,0 0,-38 -9,0 0,38 z"/></g><g id="g613"><path id="path615" fill="#594454" d="m 23.5,84.979 -10,0 c -0.276,0 -0.5,-0.224 -0.5,-0.5 l 0,-39 c 0,-0.276 0.224,-0.5 0.5,-0.5 l 10,0 c 0.276,0 0.5,0.224 0.5,0.5 l 0,39 c 0,0.277 -0.224,0.5 -0.5,0.5 z m -9.5,-1 9,0 0,-38 -9,0 0,38 z"/></g><g id="g617"><path id="path619" fill="#594454" d="m 38.5,46 -5,0 C 33.224,46 33,45.776 33,45.5 33,45.224 33.224,45 33.5,45 l 5,0 c 0.276,0 0.5,0.224 0.5,0.5 0,0.276 -0.224,0.5 -0.5,0.5 z"/></g><g id="g621"><path id="path623" fill="#594454" d="m 36,57 c -0.276,0 -0.5,-0.224 -0.5,-0.5 l 0,-6 c 0,-0.276 0.224,-0.5 0.5,-0.5 0.276,0 0.5,0.224 0.5,0.5 l 0,6 c 0,0.276 -0.224,0.5 -0.5,0.5 z"/></g><g id="g625"><path id="path627" fill="#594454" d="m 38.5,84.979 -5,0 c -0.276,0 -0.5,-0.224 -0.5,-0.5 l 0,-51 c 0,-0.276 0.224,-0.5 0.5,-0.5 l 5,0 c 0.276,0 0.5,0.224 0.5,0.5 l 0,51 c 0,0.277 -0.224,0.5 -0.5,0.5 z m -4.5,-1 4,0 0,-50 -4,0 0,50 z"/></g><g id="g629"><path id="path631" fill="#594454" d="m 97.5,45.979 -10,0 c -0.276,0 -0.5,-0.224 -0.5,-0.5 l 0,-13 c 0,-0.142 0.06,-0.276 0.164,-0.371 0.105,-0.095 0.246,-0.143 0.386,-0.126 l 10,1 c 0.256,0.025 0.45,0.24 0.45,0.497 l 0,12 c 0,0.277 -0.224,0.5 -0.5,0.5 z m -9.5,-1 9,0 0,-11.048 -9,-0.899 0,11.947 z"/></g><g id="g633"><path id="path635" fill="#594454" d="M 95.5,57 C 95.224,57 95,56.776 95,56.5 l 0,-6 c 0,-0.276 0.224,-0.5 0.5,-0.5 0.276,0 0.5,0.224 0.5,0.5 l 0,6 c 0,0.276 -0.224,0.5 -0.5,0.5 z"/></g><g id="g637"><path id="path639" fill="#594454" d="M 95.5,43 C 95.224,43 95,42.776 95,42.5 l 0,-4 c 0,-0.276 0.224,-0.5 0.5,-0.5 0.276,0 0.5,0.224 0.5,0.5 l 0,4 c 0,0.276 -0.224,0.5 -0.5,0.5 z"/></g><g id="g641"><path id="path643" fill="#594454" d="M 89.5,43 C 89.224,43 89,42.776 89,42.5 l 0,-4 c 0,-0.276 0.224,-0.5 0.5,-0.5 0.276,0 0.5,0.224 0.5,0.5 l 0,4 c 0,0.276 -0.224,0.5 -0.5,0.5 z"/></g><g id="g645"><path id="path647" fill="#594454" d="M 92.5,57 C 92.224,57 92,56.776 92,56.5 l 0,-6 c 0,-0.276 0.224,-0.5 0.5,-0.5 0.276,0 0.5,0.224 0.5,0.5 l 0,6 c 0,0.276 -0.224,0.5 -0.5,0.5 z"/></g><g id="g649"><path id="path651" fill="#594454" d="M 89.5,57 C 89.224,57 89,56.776 89,56.5 l 0,-6 c 0,-0.276 0.224,-0.5 0.5,-0.5 0.276,0 0.5,0.224 0.5,0.5 l 0,6 c 0,0.276 -0.224,0.5 -0.5,0.5 z"/></g><g id="g653"><path id="path655" fill="#594454" d="M 85.5,57 C 85.224,57 85,56.776 85,56.5 l 0,-6 c 0,-0.276 0.224,-0.5 0.5,-0.5 0.276,0 0.5,0.224 0.5,0.5 l 0,6 c 0,0.276 -0.224,0.5 -0.5,0.5 z"/></g><g id="g657"><path id="path659" fill="#594454" d="M 82.5,57 C 82.224,57 82,56.776 82,56.5 l 0,-6 c 0,-0.276 0.224,-0.5 0.5,-0.5 0.276,0 0.5,0.224 0.5,0.5 l 0,6 c 0,0.276 -0.224,0.5 -0.5,0.5 z"/></g><g id="g661"><path id="path663" fill="#594454" d="M 79.5,57 C 79.224,57 79,56.776 79,56.5 l 0,-6 c 0,-0.276 0.224,-0.5 0.5,-0.5 0.276,0 0.5,0.224 0.5,0.5 l 0,6 c 0,0.276 -0.224,0.5 -0.5,0.5 z"/></g><g id="g665"><path id="path667" fill="#594454" d="M 75.5,57 C 75.224,57 75,56.776 75,56.5 l 0,-6 c 0,-0.276 0.224,-0.5 0.5,-0.5 0.276,0 0.5,0.224 0.5,0.5 l 0,6 c 0,0.276 -0.224,0.5 -0.5,0.5 z"/></g><g id="g669"><path id="path671" fill="#594454" d="M 72.5,57 C 72.224,57 72,56.776 72,56.5 l 0,-6 c 0,-0.276 0.224,-0.5 0.5,-0.5 0.276,0 0.5,0.224 0.5,0.5 l 0,6 c 0,0.276 -0.224,0.5 -0.5,0.5 z"/></g><g id="g673"><path id="path675" fill="#594454" d="M 69.5,57 C 69.224,57 69,56.776 69,56.5 l 0,-6 c 0,-0.276 0.224,-0.5 0.5,-0.5 0.276,0 0.5,0.224 0.5,0.5 l 0,6 c 0,0.276 -0.224,0.5 -0.5,0.5 z"/></g><g id="g677"><path id="path679" fill="#594454" d="m 97,35.979 -34,0 c -0.276,0 -0.5,-0.224 -0.5,-0.5 0,-0.276 0.224,-0.5 0.5,-0.5 l 34,0 c 0.276,0 0.5,0.224 0.5,0.5 0,0.276 -0.224,0.5 -0.5,0.5 z"/></g><g id="g681"><path id="path683" fill="#594454" d="m 93.5,42.979 -2,0 c -0.276,0 -0.5,-0.224 -0.5,-0.5 l 0,-3 c 0,-0.827 0.673,-1.5 1.5,-1.5 0.827,0 1.5,0.673 1.5,1.5 l 0,3 c 0,0.277 -0.224,0.5 -0.5,0.5 z m -1.5,-1 1,0 0,-2.5 c 0,-0.275 -0.225,-0.5 -0.5,-0.5 -0.275,0 -0.5,0.225 -0.5,0.5 l 0,2.5 z"/></g><g id="g685"><path id="path687" fill="#594454" d="m 87.5,45.979 -10,0 c -0.276,0 -0.5,-0.224 -0.5,-0.5 l 0,-13 c 0,-0.276 0.224,-0.5 0.5,-0.5 l 10,0 c 0.276,0 0.5,0.224 0.5,0.5 l 0,13 c 0,0.277 -0.224,0.5 -0.5,0.5 z m -9.5,-1 9,0 0,-12 -9,0 0,12 z"/></g><g id="g689"><path id="path691" fill="#594454" d="M 85.5,43 C 85.224,43 85,42.776 85,42.5 l 0,-4 c 0,-0.276 0.224,-0.5 0.5,-0.5 0.276,0 0.5,0.224 0.5,0.5 l 0,4 c 0,0.276 -0.224,0.5 -0.5,0.5 z"/></g><g id="g693"><path id="path695" fill="#594454" d="M 79.5,43 C 79.224,43 79,42.776 79,42.5 l 0,-4 c 0,-0.276 0.224,-0.5 0.5,-0.5 0.276,0 0.5,0.224 0.5,0.5 l 0,4 c 0,0.276 -0.224,0.5 -0.5,0.5 z"/></g><g id="g697"><path id="path699" fill="#594454" d="m 83.5,42.979 -2,0 c -0.276,0 -0.5,-0.224 -0.5,-0.5 l 0,-3 c 0,-0.827 0.673,-1.5 1.5,-1.5 0.827,0 1.5,0.673 1.5,1.5 l 0,3 c 0,0.277 -0.224,0.5 -0.5,0.5 z m -1.5,-1 1,0 0,-2.5 c 0,-0.275 -0.225,-0.5 -0.5,-0.5 -0.275,0 -0.5,0.225 -0.5,0.5 l 0,2.5 z"/></g><g id="g701"><path id="path703" fill="#594454" d="m 77.5,45.979 -10,0 c -0.276,0 -0.5,-0.224 -0.5,-0.5 l 0,-12 c 0,-0.257 0.194,-0.472 0.45,-0.497 l 10,-1 c 0.141,-0.016 0.28,0.032 0.386,0.126 0.104,0.095 0.164,0.23 0.164,0.371 l 0,13 c 0,0.277 -0.224,0.5 -0.5,0.5 z m -9.5,-1 9,0 0,-11.947 -9,0.899 0,11.048 z"/></g><g id="g705"><path id="path707" fill="#594454" d="M 75.5,43 C 75.224,43 75,42.776 75,42.5 l 0,-4 c 0,-0.276 0.224,-0.5 0.5,-0.5 0.276,0 0.5,0.224 0.5,0.5 l 0,4 c 0,0.276 -0.224,0.5 -0.5,0.5 z"/></g><g id="g709"><path id="path711" fill="#594454" d="M 69.5,43 C 69.224,43 69,42.776 69,42.5 l 0,-4 c 0,-0.276 0.224,-0.5 0.5,-0.5 0.276,0 0.5,0.224 0.5,0.5 l 0,4 c 0,0.276 -0.224,0.5 -0.5,0.5 z"/></g><g id="g713"><path id="path715" fill="#594454" d="m 73.5,42.979 -2,0 c -0.276,0 -0.5,-0.224 -0.5,-0.5 l 0,-3 c 0,-0.827 0.673,-1.5 1.5,-1.5 0.827,0 1.5,0.673 1.5,1.5 l 0,3 c 0,0.277 -0.224,0.5 -0.5,0.5 z m -1.5,-1 1,0 0,-2.5 c 0,-0.275 -0.225,-0.5 -0.5,-0.5 -0.275,0 -0.5,0.225 -0.5,0.5 l 0,2.5 z"/></g><g id="g717"><path id="path719" fill="#594454" d="m 97.5,84.979 -10,0 c -0.276,0 -0.5,-0.224 -0.5,-0.5 l 0,-39 c 0,-0.276 0.224,-0.5 0.5,-0.5 l 10,0 c 0.276,0 0.5,0.224 0.5,0.5 l 0,39 c 0,0.277 -0.224,0.5 -0.5,0.5 z m -9.5,-1 9,0 0,-38 -9,0 0,38 z"/></g><g id="g721"><path id="path723" fill="#594454" d="m 87.5,84.979 -10,0 c -0.276,0 -0.5,-0.224 -0.5,-0.5 l 0,-39 c 0,-0.276 0.224,-0.5 0.5,-0.5 l 10,0 c 0.276,0 0.5,0.224 0.5,0.5 l 0,39 c 0,0.277 -0.224,0.5 -0.5,0.5 z m -9.5,-1 9,0 0,-38 -9,0 0,38 z"/></g><g id="g725"><path id="path727" fill="#594454" d="m 77.5,84.979 -10,0 c -0.276,0 -0.5,-0.224 -0.5,-0.5 l 0,-39 c 0,-0.276 0.224,-0.5 0.5,-0.5 l 10,0 c 0.276,0 0.5,0.224 0.5,0.5 l 0,39 c 0,0.277 -0.224,0.5 -0.5,0.5 z m -9.5,-1 9,0 0,-38 -9,0 0,38 z"/></g><g id="g729"><path id="path731" fill="#594454" d="m 67.5,46 -5,0 C 62.224,46 62,45.776 62,45.5 62,45.224 62.224,45 62.5,45 l 5,0 c 0.276,0 0.5,0.224 0.5,0.5 0,0.276 -0.224,0.5 -0.5,0.5 z"/></g><g id="g733"><path id="path735" fill="#594454" d="m 65,57 c -0.276,0 -0.5,-0.224 -0.5,-0.5 l 0,-6 c 0,-0.276 0.224,-0.5 0.5,-0.5 0.276,0 0.5,0.224 0.5,0.5 l 0,6 c 0,0.276 -0.224,0.5 -0.5,0.5 z"/></g><g id="g737"><path id="path739" fill="#594454" d="m 67.5,84.979 -5,0 c -0.276,0 -0.5,-0.224 -0.5,-0.5 l 0,-51 c 0,-0.276 0.224,-0.5 0.5,-0.5 l 5,0 c 0.276,0 0.5,0.224 0.5,0.5 l 0,51 c 0,0.277 -0.224,0.5 -0.5,0.5 z m -4.5,-1 4,0 0,-50 -4,0 0,50 z"/></g><g id="g741"><path id="path743" fill="#594454" d="m 62.5,84.979 -24,0 c -0.276,0 -0.5,-0.224 -0.5,-0.5 l 0,-47 c 0,-0.276 0.224,-0.5 0.5,-0.5 l 24,0 c 0.276,0 0.5,0.224 0.5,0.5 l 0,47 c 0,0.277 -0.224,0.5 -0.5,0.5 z m -23.5,-1 23,0 0,-46 -23,0 0,46 z"/></g><g id="g745"><path id="path747" fill="#594454" d="m 62.5,33.979 -24,0 c -0.276,0 -0.5,-0.224 -0.5,-0.5 l 0,-13 c 0,-0.276 0.224,-0.5 0.5,-0.5 l 24,0 c 0.276,0 0.5,0.224 0.5,0.5 l 0,13 c 0,0.277 -0.224,0.5 -0.5,0.5 z m -23.5,-1 23,0 0,-12 -23,0 0,12 z"/></g><g id="g749"><path id="path751" fill="#594454" d="m 33.5,33.479 c -0.276,0 -0.5,-0.224 -0.5,-0.5 l 0,-12 c 0,-0.276 0.224,-0.5 0.5,-0.5 0.276,0 0.5,0.224 0.5,0.5 l 0,12 c 0,0.277 -0.224,0.5 -0.5,0.5 z"/></g><g id="g753"><path id="path755" fill="#594454" d="m 67.5,33.479 c -0.276,0 -0.5,-0.224 -0.5,-0.5 l 0,-12 c 0,-0.276 0.224,-0.5 0.5,-0.5 0.276,0 0.5,0.224 0.5,0.5 l 0,12 c 0,0.277 -0.224,0.5 -0.5,0.5 z"/></g><g id="g757"><path id="path759" fill="#594454" d="m 59.5,84.979 -17,0 c -0.276,0 -0.5,-0.224 -0.5,-0.5 l 0,-15.231 c 0,-2.939 1.484,-5.628 3.971,-7.192 l 4.763,-2.999 c 0.158,-0.101 0.358,-0.103 0.521,-0.008 l 4.557,2.68 C 58.395,63.249 60,66.055 60,69.054 l 0,15.425 c 0,0.277 -0.224,0.5 -0.5,0.5 z m -16.5,-1 16,0 0,-14.925 c 0,-2.646 -1.417,-5.123 -3.697,-6.465 l -4.294,-2.525 -4.505,2.837 C 44.31,64.282 43,66.654 43,69.248 l 0,14.731 z"/></g><g id="g761"><path id="path763" fill="#594454" d="m 56.5,84.979 -11,0 c -0.276,0 -0.5,-0.224 -0.5,-0.5 l 0,-15.247 c 0,-1.962 0.991,-3.758 2.651,-4.803 l 3.082,-1.94 c 0.158,-0.101 0.358,-0.103 0.521,-0.008 l 2.948,1.734 C 55.928,65.23 57,67.105 57,69.108 l 0,15.371 c 0,0.277 -0.224,0.5 -0.5,0.5 z m -10.5,-1 10,0 0,-14.871 c 0,-1.65 -0.883,-3.194 -2.306,-4.031 l -2.686,-1.58 -2.824,1.778 C 46.816,66.136 46,67.616 46,69.232 l 0,14.747 z"/></g><g id="g765"><path id="path767" fill="#594454" d="m 44.5,60.979 c -0.827,0 -1.5,-0.673 -1.5,-1.5 0,-0.827 0.673,-1.5 1.5,-1.5 0.827,0 1.5,0.673 1.5,1.5 0,0.827 -0.673,1.5 -1.5,1.5 z m 0,-2 c -0.275,0 -0.5,0.225 -0.5,0.5 0,0.275 0.225,0.5 0.5,0.5 0.275,0 0.5,-0.225 0.5,-0.5 0,-0.275 -0.225,-0.5 -0.5,-0.5 z"/></g><g id="g769"><path id="path771" fill="#594454" d="m 56.5,60.979 c -0.827,0 -1.5,-0.673 -1.5,-1.5 0,-0.827 0.673,-1.5 1.5,-1.5 0.827,0 1.5,0.673 1.5,1.5 0,0.827 -0.673,1.5 -1.5,1.5 z m 0,-2 c -0.275,0 -0.5,0.225 -0.5,0.5 0,0.275 0.225,0.5 0.5,0.5 0.275,0 0.5,-0.225 0.5,-0.5 0,-0.275 -0.225,-0.5 -0.5,-0.5 z"/></g><g id="g773"><path id="path775" fill="#594454" d="m 42.5,45.312 c -0.276,0 -0.5,-0.224 -0.5,-0.5 l 0,-1.333 c 0,-0.827 -0.673,-1.5 -1.5,-1.5 -0.827,0 -1.5,0.673 -1.5,1.5 l 0,1.333 c 0,0.276 -0.224,0.5 -0.5,0.5 -0.276,0 -0.5,-0.224 -0.5,-0.5 l 0,-1.333 c 0,-1.379 1.121,-2.5 2.5,-2.5 1.379,0 2.5,1.121 2.5,2.5 l 0,1.333 c 0,0.277 -0.224,0.5 -0.5,0.5 z"/></g><g id="g777"><path id="path779" fill="#594454" d="m 46.5,45.312 c -0.276,0 -0.5,-0.224 -0.5,-0.5 l 0,-1.333 c 0,-0.827 -0.673,-1.5 -1.5,-1.5 -0.827,0 -1.5,0.673 -1.5,1.5 l 0,1.333 c 0,0.276 -0.224,0.5 -0.5,0.5 -0.276,0 -0.5,-0.224 -0.5,-0.5 l 0,-1.333 c 0,-1.379 1.121,-2.5 2.5,-2.5 1.379,0 2.5,1.121 2.5,2.5 l 0,1.333 c 0,0.277 -0.224,0.5 -0.5,0.5 z"/></g><g id="g781"><path id="path783" fill="#594454" d="m 50.5,45.312 c -0.276,0 -0.5,-0.224 -0.5,-0.5 l 0,-1.333 c 0,-0.827 -0.673,-1.5 -1.5,-1.5 -0.827,0 -1.5,0.673 -1.5,1.5 l 0,1.333 c 0,0.276 -0.224,0.5 -0.5,0.5 -0.276,0 -0.5,-0.224 -0.5,-0.5 l 0,-1.333 c 0,-1.379 1.121,-2.5 2.5,-2.5 1.379,0 2.5,1.121 2.5,2.5 l 0,1.333 c 0,0.277 -0.224,0.5 -0.5,0.5 z"/></g><g id="g785"><path id="path787" fill="#594454" d="m 54.5,45.312 c -0.276,0 -0.5,-0.224 -0.5,-0.5 l 0,-1.333 c 0,-0.827 -0.673,-1.5 -1.5,-1.5 -0.827,0 -1.5,0.673 -1.5,1.5 l 0,1.333 c 0,0.276 -0.224,0.5 -0.5,0.5 -0.276,0 -0.5,-0.224 -0.5,-0.5 l 0,-1.333 c 0,-1.379 1.121,-2.5 2.5,-2.5 1.379,0 2.5,1.121 2.5,2.5 l 0,1.333 c 0,0.277 -0.224,0.5 -0.5,0.5 z"/></g><g id="g789"><path id="path791" fill="#594454" d="m 58.5,45.312 c -0.276,0 -0.5,-0.224 -0.5,-0.5 l 0,-1.333 c 0,-0.827 -0.673,-1.5 -1.5,-1.5 -0.827,0 -1.5,0.673 -1.5,1.5 l 0,1.333 c 0,0.276 -0.224,0.5 -0.5,0.5 -0.276,0 -0.5,-0.224 -0.5,-0.5 l 0,-1.333 c 0,-1.379 1.121,-2.5 2.5,-2.5 1.379,0 2.5,1.121 2.5,2.5 l 0,1.333 c 0,0.277 -0.224,0.5 -0.5,0.5 z"/></g><g id="g793"><path id="path795" fill="#594454" d="m 62.5,45.312 c -0.276,0 -0.5,-0.224 -0.5,-0.5 l 0,-1.333 c 0,-0.827 -0.673,-1.5 -1.5,-1.5 -0.827,0 -1.5,0.673 -1.5,1.5 l 0,1.333 c 0,0.276 -0.224,0.5 -0.5,0.5 -0.276,0 -0.5,-0.224 -0.5,-0.5 l 0,-1.333 c 0,-1.379 1.121,-2.5 2.5,-2.5 1.379,0 2.5,1.121 2.5,2.5 l 0,1.333 c 0,0.277 -0.224,0.5 -0.5,0.5 z"/></g><g id="g797"><path id="path799" fill="#594454" d="m 44.5,33.479 c -0.276,0 -0.5,-0.224 -0.5,-0.5 l 0.003,-9.001 c 0,-0.531 -0.702,-0.999 -1.502,-0.999 -0.8,0 -1.501,0.468 -1.501,1 l 0,9 c 0,0.276 -0.224,0.5 -0.5,0.5 -0.276,0 -0.5,-0.224 -0.5,-0.5 l 0,-9 c 0,-1.103 1.122,-2 2.501,-2 1.38,0 2.502,0.897 2.502,2 l -0.003,9 c 0,0.277 -0.224,0.5 -0.5,0.5 z"/></g><g id="g801"><path id="path803" fill="#594454" d="m 48.5,33.479 c -0.276,0 -0.5,-0.224 -0.5,-0.5 l 0.003,-9.001 c 0,-0.531 -0.702,-0.999 -1.502,-0.999 -0.8,0 -1.501,0.468 -1.501,1 l 0,9 c 0,0.276 -0.224,0.5 -0.5,0.5 -0.276,0 -0.5,-0.224 -0.5,-0.5 l 0,-9 c 0,-1.103 1.122,-2 2.501,-2 1.38,0 2.502,0.897 2.502,2 l -0.003,9 c 0,0.277 -0.224,0.5 -0.5,0.5 z"/></g><g id="g805"><path id="path807" fill="#594454" d="m 52.5,33.479 c -0.276,0 -0.5,-0.224 -0.5,-0.5 l 0.003,-9.001 c 0,-0.531 -0.702,-0.999 -1.502,-0.999 -0.8,0 -1.501,0.468 -1.501,1 l 0,9 c 0,0.276 -0.224,0.5 -0.5,0.5 -0.276,0 -0.5,-0.224 -0.5,-0.5 l 0,-9 c 0,-1.103 1.122,-2 2.501,-2 1.38,0 2.502,0.897 2.502,2 l -0.003,9 c 0,0.277 -0.224,0.5 -0.5,0.5 z"/></g><g id="g809"><path id="path811" fill="#594454" d="m 56.5,33.479 c -0.276,0 -0.5,-0.224 -0.5,-0.5 l 0.003,-9.001 c 0,-0.531 -0.702,-0.999 -1.502,-0.999 -0.8,0 -1.501,0.468 -1.501,1 l 0,9 c 0,0.276 -0.224,0.5 -0.5,0.5 -0.276,0 -0.5,-0.224 -0.5,-0.5 l 0,-9 c 0,-1.103 1.122,-2 2.501,-2 1.38,0 2.502,0.897 2.502,2 l -0.003,9 c 0,0.277 -0.224,0.5 -0.5,0.5 z"/></g><g id="g813"><path id="path815" fill="#594454" d="m 60.5,33.479 c -0.276,0 -0.5,-0.224 -0.5,-0.5 l 0.003,-9.001 c 0,-0.531 -0.702,-0.999 -1.502,-0.999 -0.8,0 -1.501,0.468 -1.501,1 l 0,9 c 0,0.276 -0.224,0.5 -0.5,0.5 -0.276,0 -0.5,-0.224 -0.5,-0.5 l 0,-9 c 0,-1.103 1.122,-2 2.501,-2 1.38,0 2.502,0.897 2.502,2 l -0.003,9 c 0,0.277 -0.224,0.5 -0.5,0.5 z"/></g><g id="g817"><path id="path819" fill="#594454" d="m 35.5,33.479 c -0.276,0 -0.5,-0.224 -0.5,-0.5 l 0,-6.376 c 0,-0.896 0.897,-1.624 2,-1.624 1.475,0 2,0.719 2,1.391 0,0.276 -0.224,0.5 -0.5,0.5 -0.276,0 -0.5,-0.224 -0.5,-0.5 0,-0.269 -0.519,-0.391 -1,-0.391 -0.572,0 -1,0.329 -1,0.624 l 0,6.376 c 0,0.277 -0.224,0.5 -0.5,0.5 z"/></g><g id="g821"><path id="path823" fill="#594454" d="m 65.5,33.479 c -0.276,0 -0.5,-0.224 -0.5,-0.5 l 0,-6 c 0,-0.276 0.224,-0.5 0.5,-0.5 0.276,0 0.5,0.224 0.5,0.5 l 0,6 c 0,0.277 -0.224,0.5 -0.5,0.5 z"/></g><g id="g825"><path id="path827" fill="#594454" d="m 65.5,27.103 c -0.276,0 -0.5,-0.224 -0.5,-0.5 0,-0.295 -0.428,-0.624 -1,-0.624 -0.572,0 -1,0.329 -1,0.624 0,0.276 -0.224,0.5 -0.5,0.5 -0.276,0 -0.5,-0.224 -0.5,-0.5 0,-0.896 0.897,-1.624 2,-1.624 1.103,0 2,0.729 2,1.624 0,0.277 -0.224,0.5 -0.5,0.5 z"/></g><g id="g829"><path id="path831" fill="#594454" d="m 69.5,20.979 -38,0 c -0.276,0 -0.5,-0.224 -0.5,-0.5 l 0,-2 c 0,-0.276 0.224,-0.5 0.5,-0.5 l 38,0 c 0.276,0 0.5,0.224 0.5,0.5 l 0,2 c 0,0.277 -0.224,0.5 -0.5,0.5 z m -37.5,-1 37,0 0,-1 -37,0 0,1 z"/></g><g id="g833"><path id="path835" fill="#594454" d="m 33.5,24.979 -6,0 c -0.276,0 -0.5,-0.224 -0.5,-0.5 l 0,-2 c 0,-0.276 0.224,-0.5 0.5,-0.5 l 6,0 c 0.276,0 0.5,0.224 0.5,0.5 l 0,2 c 0,0.277 -0.224,0.5 -0.5,0.5 z m -5.5,-1 5,0 0,-1 -5,0 0,1 z"/></g><g id="g837"><path id="path839" fill="#594454" d="m 73.5,24.979 -6,0 c -0.276,0 -0.5,-0.224 -0.5,-0.5 l 0,-2 c 0,-0.276 0.224,-0.5 0.5,-0.5 l 6,0 c 0.276,0 0.5,0.224 0.5,0.5 l 0,2 c 0,0.277 -0.224,0.5 -0.5,0.5 z m -5.5,-1 5,0 0,-1 -5,0 0,1 z"/></g><g id="g841"><rect id="rect843" width="26" height="3" x="37.5" y="33.479" fill="#f2b894"/></g><g id="g845"><rect id="rect847" width="24" height="3" x="38.5" y="36.479" fill="#f2b894"/></g><g id="g849"><rect id="rect851" width="24" height="2" x="38.5" y="35.99" fill="#bd866e"/></g><g id="g853"><path id="path855" fill="#594454" d="m 63.5,36.979 -26,0 c -0.276,0 -0.5,-0.224 -0.5,-0.5 l 0,-3 c 0,-0.276 0.224,-0.5 0.5,-0.5 l 26,0 c 0.276,0 0.5,0.224 0.5,0.5 l 0,3 c 0,0.277 -0.224,0.5 -0.5,0.5 z m -25.5,-1 25,0 0,-2 -25,0 0,2 z"/></g><g id="g857"><path id="path859" fill="#594454" d="m 62.5,39.979 -24,0 c -0.276,0 -0.5,-0.224 -0.5,-0.5 l 0,-3 c 0,-0.276 0.224,-0.5 0.5,-0.5 l 24,0 c 0.276,0 0.5,0.224 0.5,0.5 l 0,3 c 0,0.277 -0.224,0.5 -0.5,0.5 z m -23.5,-1 23,0 0,-2 -23,0 0,2 z"/></g><g id="g861"><polygon id="polygon863" fill="#9e919c" points="34.5 12.479 33 15.479 34.5 15.479 64.5 15.479 66.5 15.479 68 18.479 69.5 18.479 66.5 12.479"/></g><g id="g865"><path id="path867" fill="#594454" d="m 69.5,18.979 -38,0 c -0.173,0 -0.334,-0.09 -0.426,-0.237 -0.091,-0.147 -0.099,-0.331 -0.021,-0.486 l 3,-6 C 34.138,12.087 34.311,11.98 34.5,11.98 l 32,0 c 0.189,0 0.362,0.107 0.447,0.276 l 3,6 c 0.077,0.155 0.069,0.339 -0.021,0.486 -0.092,0.147 -0.253,0.237 -0.426,0.237 z m -37.191,-1 36.383,0 -2.5,-5 -31.383,0 -2.5,5 z"/></g></g><path id="path99-0" fill="#594454" d="M 99.25373,91 0.746269,91 C 0.298507,91 0,90.8 0,90.5 0,90.2 0.298507,90 0.746269,90 L 99.25373,90 C 99.70149,90 100,90.2 100,90.5 100,90.8 99.70149,91 99.25373,91 Z"/></svg>