<?xml version="1.0" encoding="iso-8859-1"?>
<!-- Generator: Adobe Illustrator 19.0.0, SVG Export Plug-In . SVG Version: 6.00 Build 0)  -->
<svg version="1.1" id="Capa_1" xmlns="http://www.w3.org/2000/svg" xmlns:xlink="http://www.w3.org/1999/xlink" x="0px" y="0px"
	 viewBox="0 0 490 490" style="enable-background:new 0 0 490 490;" xml:space="preserve">
<g>
	<g>
		<polygon points="294.586,351.781 159.695,351.781 159.695,331.364 274.169,331.364 274.169,92.072 20.417,92.072 20.417,331.364 
			63.055,331.364 63.055,351.781 0,351.781 0,71.655 294.586,71.655 		"/>
	</g>
	<g>
		<polygon points="490,351.781 425.42,351.781 425.42,331.364 469.583,331.364 469.583,238.239 380.24,137.371 294.586,137.371 
			294.586,331.364 328.8,331.364 328.8,351.781 274.169,351.781 274.169,116.955 389.431,116.955 490,230.493 		"/>
	</g>
	<g>
		<path d="M377.728,418.345c-33.597,0-60.921-27.33-60.921-60.92c0-33.592,27.325-60.921,60.921-60.921
			c33.595,0,60.93,27.33,60.93,60.921C438.659,391.015,411.324,418.345,377.728,418.345z M377.728,316.92
			c-22.331,0-40.505,18.169-40.505,40.505c0,22.336,18.174,40.504,40.505,40.504c22.34,0,40.514-18.168,40.514-40.504
			C418.242,335.088,400.068,316.92,377.728,316.92z"/>
	</g>
	<g>
		<path d="M112.262,418.345c-33.596,0-60.921-27.33-60.921-60.92c0-33.592,27.326-60.921,60.921-60.921s60.92,27.33,60.92,60.921
			C173.182,391.015,145.858,418.345,112.262,418.345z M112.262,316.92c-22.331,0-40.505,18.169-40.505,40.505
			c0,22.336,18.174,40.504,40.505,40.504c22.33,0,40.503-18.168,40.503-40.504C152.766,335.088,134.593,316.92,112.262,316.92z"/>
	</g>
</g>
<g>
</g>
<g>
</g>
<g>
</g>
<g>
</g>
<g>
</g>
<g>
</g>
<g>
</g>
<g>
</g>
<g>
</g>
<g>
</g>
<g>
</g>
<g>
</g>
<g>
</g>
<g>
</g>
<g>
</g>
</svg>
